<mxfile><diagram id="HuhUC8r1bE9fZLHFmISH" name="Page-1"><mxGraphModel dx="1167" dy="1685" grid="1" gridSize="10" guides="1" tooltips="1" connect="1" arrows="1" fold="1" page="1" pageScale="1" pageWidth="1169" pageHeight="827" math="0" shadow="0"><root><mxCell id="0"/><mxCell id="1" parent="0"/><mxCell id="2" value="Home Page" style="swimlane;startSize=23;" parent="1" vertex="1"><mxGeometry x="10" y="29.33823529411765" width="281.3526570048309" height="205.36764705882354" as="geometry"/></mxCell><mxCell id="3" value="&lt;h1&gt;Heading&lt;/h1&gt;&lt;p&gt;Lorem ipsum dolor sit amet, consectetur adipisicing elit, sed do eiusmod tempor incididunt ut labore et dolore magna aliqua.&lt;/p&gt;" style="text;html=1;strokeColor=none;fillColor=none;spacing=5;spacingTop=-20;whiteSpace=wrap;overflow=hidden;rounded=0;" parent="2" vertex="1"><mxGeometry x="17.584541062801932" y="48.89705882352941" width="167.05314009661836" height="117.3529411764706" as="geometry"/></mxCell><mxCell id="4" value="Register&amp;nbsp;" style="rounded=1;whiteSpace=wrap;html=1;" parent="2" vertex="1"><mxGeometry x="184.63487922705315" y="166.25" width="61.54589371980676" height="19.55882352941176" as="geometry"/></mxCell><mxCell id="5" value="&lt;font style=&quot;font-size: 10px&quot;&gt;Home&amp;nbsp; &amp;nbsp; About Us&amp;nbsp; &amp;nbsp; Contact Us&amp;nbsp; &amp;nbsp;Registration&amp;nbsp; &amp;nbsp;Login&lt;/font&gt;" style="rounded=1;whiteSpace=wrap;html=1;" parent="2" vertex="1"><mxGeometry y="24.448529411764707" width="281.3526570048309" height="19.55882352941176" as="geometry"/></mxCell><mxCell id="6" value="About us Page " style="swimlane;startSize=23;" parent="1" vertex="1"><mxGeometry x="425.93" y="50" width="281.35" height="175.37" as="geometry"/></mxCell><mxCell id="7" value="&lt;h1&gt;&lt;span style=&quot;font-weight: normal&quot;&gt;Heading&lt;/span&gt;&lt;/h1&gt;&lt;p&gt;Lorem ipsum dolor sit amet, consectetur adipisicing elit, sed do eiusmod tempor incididunt ut labore et dolore magna aliqua.&lt;/p&gt;" style="text;html=1;strokeColor=none;fillColor=none;spacing=5;spacingTop=-20;whiteSpace=wrap;overflow=hidden;rounded=0;align=center;" parent="6" vertex="1"><mxGeometry x="70.33816425120773" y="58.6764705882353" width="167.05314009661836" height="117.3529411764706" as="geometry"/></mxCell><mxCell id="9" value="&lt;font style=&quot;font-size: 10px&quot;&gt;Home&amp;nbsp; &amp;nbsp; About Us&amp;nbsp; &amp;nbsp; Contact Us&amp;nbsp; &amp;nbsp;Registration&amp;nbsp; &amp;nbsp;Login&lt;/font&gt;" style="rounded=1;whiteSpace=wrap;html=1;" parent="6" vertex="1"><mxGeometry y="24.448529411764707" width="281.3526570048309" height="19.55882352941176" as="geometry"/></mxCell><mxCell id="10" value="Contact us Page " style="swimlane;fontStyle=0" parent="1" vertex="1"><mxGeometry x="780" y="50" width="281.35" height="184.71" as="geometry"/></mxCell><mxCell id="11" value="&lt;h1&gt;&lt;ul&gt;&lt;li style=&quot;line-height: 0.4&quot;&gt;&lt;span style=&quot;font-size: 12px&quot;&gt;Campus name: &lt;/span&gt;&lt;font style=&quot;font-weight: normal ; font-size: 8px&quot;&gt;Bab sharqi&lt;/font&gt;&lt;br&gt;&lt;font style=&quot;font-size: 12px&quot;&gt;Adress:&lt;/font&gt;&lt;font style=&quot;font-weight: normal ; font-size: 12px&quot;&gt; &lt;/font&gt;&lt;span style=&quot;font-weight: normal ; font-size: 8px&quot;&gt;Wabour el maya stree jjfdkmsfngbfv&lt;/span&gt;&lt;br&gt;&lt;span style=&quot;font-weight: normal ; font-size: 8px&quot;&gt;011252165623&amp;nbsp;&lt;/span&gt;&lt;/li&gt;&lt;li style=&quot;line-height: 0.4&quot;&gt;&lt;span style=&quot;font-size: 12px&quot;&gt;Campus name:&amp;nbsp;&lt;/span&gt;&lt;font style=&quot;font-weight: normal ; font-size: 8px&quot;&gt;Bab sharqi&lt;/font&gt;&lt;br&gt;&lt;font style=&quot;font-size: 12px&quot;&gt;Adress:&lt;/font&gt;&lt;font style=&quot;font-weight: normal ; font-size: 12px&quot;&gt;&amp;nbsp;&lt;/font&gt;&lt;span style=&quot;font-weight: normal ; font-size: 8px&quot;&gt;Wabour el maya stree jjfdkmsfngbfv&lt;/span&gt;&lt;br&gt;&lt;span style=&quot;font-weight: normal ; font-size: 8px&quot;&gt;011252165623&amp;nbsp;&lt;/span&gt;&lt;/li&gt;&lt;/ul&gt;&lt;/h1&gt;" style="text;html=1;strokeColor=none;fillColor=none;spacing=5;spacingTop=-20;whiteSpace=wrap;overflow=hidden;rounded=0;align=left;" parent="10" vertex="1"><mxGeometry x="-17.58" y="58.6764705882353" width="184.63768115942028" height="117.3529411764706" as="geometry"/></mxCell><mxCell id="12" value="&lt;font style=&quot;font-size: 10px&quot;&gt;Home&amp;nbsp; &amp;nbsp; About Us&amp;nbsp; &amp;nbsp; Contact Us&amp;nbsp; &amp;nbsp;Registration&amp;nbsp; &amp;nbsp;Login&lt;/font&gt;" style="rounded=1;whiteSpace=wrap;html=1;" parent="10" vertex="1"><mxGeometry y="30" width="281.35" height="14.01" as="geometry"/></mxCell><mxCell id="15" value="GPS&lt;br&gt;Map" style="rounded=0;whiteSpace=wrap;html=1;fontSize=8;" parent="10" vertex="1"><mxGeometry x="167.05314009661836" y="68.45588235294117" width="96.71497584541063" height="97.79411764705883" as="geometry"/></mxCell><mxCell id="1289" style="edgeStyle=none;html=1;exitX=0.5;exitY=1;exitDx=0;exitDy=0;entryX=0.5;entryY=0;entryDx=0;entryDy=0;strokeWidth=8;fillColor=#dae8fc;strokeColor=#6c8ebf;" parent="1" source="304" target="34" edge="1"><mxGeometry relative="1" as="geometry"/></mxCell><mxCell id="304" value="Donate 1 Reservation" style="swimlane;fontStyle=0;startSize=23;" parent="1" vertex="1"><mxGeometry x="1169" y="350" width="280" height="151.32" as="geometry"/></mxCell><mxCell id="308" value="&lt;font style=&quot;font-size: 11px&quot;&gt;Confirm&lt;/font&gt;" style="rounded=1;fillColor=#0057D8;strokeColor=none;html=1;fontColor=#ffffff;align=center;verticalAlign=middle;fontStyle=0;fontSize=12;sketch=0;" parent="304" vertex="1"><mxGeometry x="9.999758454106285" y="111.32411764705884" width="143.31400966183574" height="32.27205882352941" as="geometry"/></mxCell><mxCell id="1240" value="&lt;span style=&quot;color: rgb(240 , 240 , 240) ; font-weight: 400 ; text-align: center ; background-color: rgb(42 , 42 , 42)&quot;&gt;&lt;font style=&quot;font-size: 10px&quot;&gt;Avaiable Dates :&lt;/font&gt;&lt;/span&gt;" style="fillColor=none;strokeColor=none;html=1;fontSize=11;fontStyle=0;align=left;fontColor=#596780;fontStyle=1;fontSize=11;labelBackgroundColor=#CCFFE6;" parent="304" vertex="1"><mxGeometry x="10" y="40" width="240" height="20" as="geometry"/></mxCell><mxCell id="1243" value="&lt;span style=&quot;color: rgb(240 , 240 , 240) ; font-weight: 400 ; text-align: center ; background-color: rgb(42 , 42 , 42)&quot;&gt;&lt;font style=&quot;font-size: 10px&quot;&gt;Avaiable Locations :&lt;/font&gt;&lt;/span&gt;" style="fillColor=none;strokeColor=none;html=1;fontSize=11;fontStyle=0;align=left;fontColor=#596780;fontStyle=1;fontSize=11;labelBackgroundColor=#CCFFE6;" parent="304" vertex="1"><mxGeometry x="10" y="70" width="240" height="20" as="geometry"/></mxCell><mxCell id="1246" value="" style="group" parent="304" vertex="1" connectable="0"><mxGeometry x="10" y="60" width="190" height="10" as="geometry"/></mxCell><mxCell id="1241" value="" style="rounded=1;arcSize=9;fillColor=#F7F8F9;align=left;spacingLeft=5;strokeColor=#DEE1E6;html=1;strokeWidth=2;fontColor=#596780;fontSize=12;labelBackgroundColor=#CCFFE6;" parent="1246" vertex="1"><mxGeometry width="190" height="10" as="geometry"/></mxCell><mxCell id="1244" value="" style="verticalLabelPosition=bottom;verticalAlign=top;html=1;shape=mxgraph.basic.acute_triangle;dx=0.5;labelBackgroundColor=none;fontSize=9;fontColor=none;strokeColor=#1A1A1A;strokeWidth=1;fillColor=none;rotation=-180;noLabel=1;" parent="1246" vertex="1"><mxGeometry x="182.22727272727272" y="1.8500000000000014" width="7.7727272727272725" height="6.3" as="geometry"/></mxCell><mxCell id="1249" value="" style="group" parent="304" vertex="1" connectable="0"><mxGeometry x="10" y="90" width="190" height="10" as="geometry"/></mxCell><mxCell id="1242" value="" style="rounded=1;arcSize=9;fillColor=#F7F8F9;align=left;spacingLeft=5;strokeColor=#DEE1E6;html=1;strokeWidth=2;fontColor=#596780;fontSize=12;labelBackgroundColor=#CCFFE6;" parent="1249" vertex="1"><mxGeometry width="190" height="10" as="geometry"/></mxCell><mxCell id="1245" value="" style="verticalLabelPosition=bottom;verticalAlign=top;html=1;shape=mxgraph.basic.acute_triangle;dx=0.5;labelBackgroundColor=none;fontSize=9;fontColor=none;strokeColor=#1A1A1A;strokeWidth=1;fillColor=none;rotation=-180;noLabel=1;" parent="1249" vertex="1"><mxGeometry x="182.22727272727272" y="1.8500000000000227" width="7.7727272727272725" height="6.3" as="geometry"/></mxCell><mxCell id="333" value="admin panel" style="swimlane;" parent="1" vertex="1"><mxGeometry x="549" y="880" width="620" height="260" as="geometry"/></mxCell><mxCell id="335" value="&lt;font style=&quot;font-size: 10px&quot;&gt;Home&amp;nbsp;&amp;nbsp;&lt;span&gt;&#9;&lt;/span&gt;&amp;nbsp;Requests&lt;span style=&quot;white-space: pre&quot;&gt;&#9;&lt;/span&gt;&lt;span&gt;&#9;&lt;/span&gt;Stock&lt;span&gt;&#9;&lt;span style=&quot;white-space: pre&quot;&gt;&#9;&lt;/span&gt;&lt;/span&gt;Donors&lt;span&gt;&#9;&lt;span style=&quot;white-space: pre&quot;&gt;&#9;&lt;/span&gt;&lt;/span&gt;Patients&lt;span style=&quot;white-space: pre&quot;&gt;&#9;&lt;/span&gt;&lt;span&gt;&#9;&lt;/span&gt;&lt;/font&gt;&lt;span style=&quot;background-color: rgba(127 , 127 , 127 , 0.1)&quot;&gt;Logout&lt;/span&gt;" style="rounded=1;whiteSpace=wrap;html=1;" parent="333" vertex="1"><mxGeometry y="24.45" width="610" height="19.56" as="geometry"/></mxCell><mxCell id="453" value="" style="group" parent="333" vertex="1" connectable="0"><mxGeometry x="15.68" y="110" width="344.27" height="140.00176470588235" as="geometry"/></mxCell><mxCell id="390" value="Requests Table" style="shape=table;startSize=30;container=1;collapsible=0;childLayout=tableLayout;fontStyle=1;align=center;pointerEvents=1;fontSize=10;" parent="453" vertex="1"><mxGeometry width="94.2659420289852" height="140" as="geometry"/></mxCell><mxCell id="391" value="" style="shape=partialRectangle;html=1;whiteSpace=wrap;collapsible=0;dropTarget=0;pointerEvents=0;fillColor=none;top=0;left=0;bottom=0;right=0;points=[[0,0.5],[1,0.5]];portConstraint=eastwest;fontSize=10;" parent="390" vertex="1"><mxGeometry y="30" width="94.2659420289852" height="30" as="geometry"/></mxCell><mxCell id="392" value="ID" style="shape=partialRectangle;html=1;whiteSpace=wrap;connectable=0;fillColor=none;top=0;left=0;bottom=0;right=0;overflow=hidden;pointerEvents=1;fontSize=10;" parent="391" vertex="1"><mxGeometry width="24" height="30" as="geometry"><mxRectangle width="24" height="30" as="alternateBounds"/></mxGeometry></mxCell><mxCell id="393" value="Blood Type" style="shape=partialRectangle;html=1;whiteSpace=wrap;connectable=0;fillColor=none;top=0;left=0;bottom=0;right=0;overflow=hidden;pointerEvents=1;fontSize=10;" parent="391" vertex="1"><mxGeometry x="24" width="30" height="30" as="geometry"><mxRectangle width="30" height="30" as="alternateBounds"/></mxGeometry></mxCell><mxCell id="394" value="&amp;nbsp;unites" style="shape=partialRectangle;html=1;whiteSpace=wrap;connectable=0;fillColor=none;top=0;left=0;bottom=0;right=0;overflow=hidden;pointerEvents=1;fontSize=10;" parent="391" vertex="1"><mxGeometry x="54" width="40" height="30" as="geometry"><mxRectangle width="40" height="30" as="alternateBounds"/></mxGeometry></mxCell><mxCell id="395" value="" style="shape=partialRectangle;html=1;whiteSpace=wrap;collapsible=0;dropTarget=0;pointerEvents=0;fillColor=none;top=0;left=0;bottom=0;right=0;points=[[0,0.5],[1,0.5]];portConstraint=eastwest;fontSize=10;" parent="390" vertex="1"><mxGeometry y="60" width="94.2659420289852" height="40" as="geometry"/></mxCell><mxCell id="396" value="&lt;font style=&quot;font-size: 7px&quot;&gt;AP180&lt;/font&gt;" style="shape=partialRectangle;html=1;whiteSpace=wrap;connectable=0;fillColor=none;top=0;left=0;bottom=0;right=0;overflow=hidden;pointerEvents=1;fontSize=10;" parent="395" vertex="1"><mxGeometry width="24" height="40" as="geometry"><mxRectangle width="24" height="40" as="alternateBounds"/></mxGeometry></mxCell><mxCell id="397" value="A+" style="shape=partialRectangle;html=1;whiteSpace=wrap;connectable=0;fillColor=none;top=0;left=0;bottom=0;right=0;overflow=hidden;pointerEvents=1;fontSize=10;" parent="395" vertex="1"><mxGeometry x="24" width="30" height="40" as="geometry"><mxRectangle width="30" height="40" as="alternateBounds"/></mxGeometry></mxCell><mxCell id="398" value="2" style="shape=partialRectangle;html=1;whiteSpace=wrap;connectable=0;fillColor=none;top=0;left=0;bottom=0;right=0;overflow=hidden;pointerEvents=1;fontSize=10;" parent="395" vertex="1"><mxGeometry x="54" width="40" height="40" as="geometry"><mxRectangle width="40" height="40" as="alternateBounds"/></mxGeometry></mxCell><mxCell id="399" value="" style="shape=partialRectangle;html=1;whiteSpace=wrap;collapsible=0;dropTarget=0;pointerEvents=0;fillColor=none;top=0;left=0;bottom=0;right=0;points=[[0,0.5],[1,0.5]];portConstraint=eastwest;fontSize=10;" parent="390" vertex="1"><mxGeometry y="100" width="94.2659420289852" height="40" as="geometry"/></mxCell><mxCell id="400" value="&lt;span style=&quot;font-size: 7px&quot;&gt;AB081&lt;/span&gt;" style="shape=partialRectangle;html=1;whiteSpace=wrap;connectable=0;fillColor=none;top=0;left=0;bottom=0;right=0;overflow=hidden;pointerEvents=1;fontSize=10;" parent="399" vertex="1"><mxGeometry width="24" height="40" as="geometry"><mxRectangle width="24" height="40" as="alternateBounds"/></mxGeometry></mxCell><mxCell id="401" value="&lt;span&gt;AB-&lt;/span&gt;" style="shape=partialRectangle;html=1;whiteSpace=wrap;connectable=0;fillColor=none;top=0;left=0;bottom=0;right=0;overflow=hidden;pointerEvents=1;fontSize=10;" parent="399" vertex="1"><mxGeometry x="24" width="30" height="40" as="geometry"><mxRectangle width="30" height="40" as="alternateBounds"/></mxGeometry></mxCell><mxCell id="402" value="1" style="shape=partialRectangle;html=1;whiteSpace=wrap;connectable=0;fillColor=none;top=0;left=0;bottom=0;right=0;overflow=hidden;pointerEvents=1;fontSize=10;" parent="399" vertex="1"><mxGeometry x="54" width="40" height="40" as="geometry"><mxRectangle width="40" height="40" as="alternateBounds"/></mxGeometry></mxCell><mxCell id="421" value="Requests Table" style="shape=table;startSize=30;container=1;collapsible=0;childLayout=tableLayout;fontStyle=1;align=center;pointerEvents=1;fontSize=10;" parent="453" vertex="1"><mxGeometry x="94.27000000000001" width="250" height="140.00176470588235" as="geometry"/></mxCell><mxCell id="422" value="" style="shape=partialRectangle;html=1;whiteSpace=wrap;collapsible=0;dropTarget=0;pointerEvents=0;fillColor=none;top=0;left=0;bottom=0;right=0;points=[[0,0.5],[1,0.5]];portConstraint=eastwest;fontSize=10;" parent="421" vertex="1"><mxGeometry y="30" width="250" height="30" as="geometry"/></mxCell><mxCell id="423" value="BState" style="shape=partialRectangle;html=1;whiteSpace=wrap;connectable=0;fillColor=none;top=0;left=0;bottom=0;right=0;overflow=hidden;pointerEvents=1;fontSize=10;" parent="422" vertex="1"><mxGeometry width="30" height="30" as="geometry"><mxRectangle width="30" height="30" as="alternateBounds"/></mxGeometry></mxCell><mxCell id="424" value="Req Time" style="shape=partialRectangle;html=1;whiteSpace=wrap;connectable=0;fillColor=none;top=0;left=0;bottom=0;right=0;overflow=hidden;pointerEvents=1;fontSize=10;" parent="422" vertex="1"><mxGeometry x="30" width="64" height="30" as="geometry"><mxRectangle width="64" height="30" as="alternateBounds"/></mxGeometry></mxCell><mxCell id="425" value="Req Area" style="shape=partialRectangle;html=1;whiteSpace=wrap;connectable=0;fillColor=none;top=0;left=0;bottom=0;right=0;overflow=hidden;pointerEvents=1;fontSize=10;" parent="422" vertex="1"><mxGeometry x="94" width="156" height="30" as="geometry"><mxRectangle width="156" height="30" as="alternateBounds"/></mxGeometry></mxCell><mxCell id="426" value="" style="shape=partialRectangle;html=1;whiteSpace=wrap;collapsible=0;dropTarget=0;pointerEvents=0;fillColor=none;top=0;left=0;bottom=0;right=0;points=[[0,0.5],[1,0.5]];portConstraint=eastwest;fontSize=10;" parent="421" vertex="1"><mxGeometry y="60" width="250" height="40" as="geometry"/></mxCell><mxCell id="427" value="Avail" style="shape=partialRectangle;html=1;whiteSpace=wrap;connectable=0;fillColor=none;top=0;left=0;bottom=0;right=0;overflow=hidden;pointerEvents=1;fontSize=10;" parent="426" vertex="1"><mxGeometry width="30" height="40" as="geometry"><mxRectangle width="30" height="40" as="alternateBounds"/></mxGeometry></mxCell><mxCell id="428" value="2:05 PM&lt;br&gt;25/3/2022" style="shape=partialRectangle;html=1;whiteSpace=wrap;connectable=0;fillColor=none;top=0;left=0;bottom=0;right=0;overflow=hidden;pointerEvents=1;fontSize=10;" parent="426" vertex="1"><mxGeometry x="30" width="64" height="40" as="geometry"><mxRectangle width="64" height="40" as="alternateBounds"/></mxGeometry></mxCell><mxCell id="429" value="City,DownTown Area&lt;br&gt;Hospital Name" style="shape=partialRectangle;html=1;whiteSpace=wrap;connectable=0;fillColor=none;top=0;left=0;bottom=0;right=0;overflow=hidden;pointerEvents=1;fontSize=10;" parent="426" vertex="1"><mxGeometry x="94" width="156" height="40" as="geometry"><mxRectangle width="156" height="40" as="alternateBounds"/></mxGeometry></mxCell><mxCell id="430" value="" style="shape=partialRectangle;html=1;whiteSpace=wrap;collapsible=0;dropTarget=0;pointerEvents=0;fillColor=none;top=0;left=0;bottom=0;right=0;points=[[0,0.5],[1,0.5]];portConstraint=eastwest;fontSize=10;" parent="421" vertex="1"><mxGeometry y="100" width="250" height="40" as="geometry"/></mxCell><mxCell id="431" value="&lt;span&gt;Out&lt;/span&gt;" style="shape=partialRectangle;html=1;whiteSpace=wrap;connectable=0;fillColor=none;top=0;left=0;bottom=0;right=0;overflow=hidden;pointerEvents=1;fontSize=10;" parent="430" vertex="1"><mxGeometry width="30" height="40" as="geometry"><mxRectangle width="30" height="40" as="alternateBounds"/></mxGeometry></mxCell><mxCell id="432" value="2:08 PM&lt;br&gt;25/3/2022" style="shape=partialRectangle;html=1;whiteSpace=wrap;connectable=0;fillColor=none;top=0;left=0;bottom=0;right=0;overflow=hidden;pointerEvents=1;fontSize=10;" parent="430" vertex="1"><mxGeometry x="30" width="64" height="40" as="geometry"><mxRectangle width="64" height="40" as="alternateBounds"/></mxGeometry></mxCell><mxCell id="433" value="&lt;span&gt;City,West Town Area&lt;br&gt;&lt;/span&gt;Clinc Name&lt;span&gt;&lt;br&gt;&lt;/span&gt;" style="shape=partialRectangle;html=1;whiteSpace=wrap;connectable=0;fillColor=none;top=0;left=0;bottom=0;right=0;overflow=hidden;pointerEvents=1;fontSize=10;" parent="430" vertex="1"><mxGeometry x="94" width="156" height="40" as="geometry"><mxRectangle width="156" height="40" as="alternateBounds"/></mxGeometry></mxCell><mxCell id="439" value="Requests Table" style="shape=table;startSize=30;container=1;collapsible=0;childLayout=tableLayout;fontStyle=1;align=center;pointerEvents=1;fontSize=10;" parent="333" vertex="1"><mxGeometry x="360.00468599033815" y="109.99823529411765" width="250" height="140.00176470588235" as="geometry"/></mxCell><mxCell id="440" value="" style="shape=partialRectangle;html=1;whiteSpace=wrap;collapsible=0;dropTarget=0;pointerEvents=0;fillColor=none;top=0;left=0;bottom=0;right=0;points=[[0,0.5],[1,0.5]];portConstraint=eastwest;fontSize=10;" parent="439" vertex="1"><mxGeometry y="30" width="250" height="30" as="geometry"/></mxCell><mxCell id="441" value="Req&lt;br&gt;State" style="shape=partialRectangle;html=1;whiteSpace=wrap;connectable=0;fillColor=none;top=0;left=0;bottom=0;right=0;overflow=hidden;pointerEvents=1;fontSize=10;" parent="440" vertex="1"><mxGeometry width="50" height="30" as="geometry"><mxRectangle width="50" height="30" as="alternateBounds"/></mxGeometry></mxCell><mxCell id="442" value="Phone" style="shape=partialRectangle;html=1;whiteSpace=wrap;connectable=0;fillColor=none;top=0;left=0;bottom=0;right=0;overflow=hidden;pointerEvents=1;fontSize=10;" parent="440" vertex="1"><mxGeometry x="50" width="70" height="30" as="geometry"><mxRectangle width="70" height="30" as="alternateBounds"/></mxGeometry></mxCell><mxCell id="443" value="Approve" style="shape=partialRectangle;html=1;whiteSpace=wrap;connectable=0;fillColor=none;top=0;left=0;bottom=0;right=0;overflow=hidden;pointerEvents=1;fontSize=10;" parent="440" vertex="1"><mxGeometry x="120" width="130" height="30" as="geometry"><mxRectangle width="130" height="30" as="alternateBounds"/></mxGeometry></mxCell><mxCell id="444" value="" style="shape=partialRectangle;html=1;whiteSpace=wrap;collapsible=0;dropTarget=0;pointerEvents=0;fillColor=none;top=0;left=0;bottom=0;right=0;points=[[0,0.5],[1,0.5]];portConstraint=eastwest;fontSize=10;" parent="439" vertex="1"><mxGeometry y="60" width="250" height="40" as="geometry"/></mxCell><mxCell id="445" value="Ergent" style="shape=partialRectangle;html=1;whiteSpace=wrap;connectable=0;fillColor=none;top=0;left=0;bottom=0;right=0;overflow=hidden;pointerEvents=1;fontSize=10;" parent="444" vertex="1"><mxGeometry width="50" height="40" as="geometry"><mxRectangle width="50" height="40" as="alternateBounds"/></mxGeometry></mxCell><mxCell id="446" value="01111544894" style="shape=partialRectangle;html=1;whiteSpace=wrap;connectable=0;fillColor=none;top=0;left=0;bottom=0;right=0;overflow=hidden;pointerEvents=1;fontSize=10;" parent="444" vertex="1"><mxGeometry x="50" width="70" height="40" as="geometry"><mxRectangle width="70" height="40" as="alternateBounds"/></mxGeometry></mxCell><mxCell id="447" value="&lt;font color=&quot;#33ff33&quot;&gt;Confirm&amp;nbsp; &lt;/font&gt;| &lt;font color=&quot;#ccccff&quot;&gt;Cancel&lt;/font&gt;" style="shape=partialRectangle;html=1;whiteSpace=wrap;connectable=0;fillColor=none;top=0;left=0;bottom=0;right=0;overflow=hidden;pointerEvents=1;fontSize=10;fontColor=#ffffff;strokeColor=none;" parent="444" vertex="1"><mxGeometry x="120" width="130" height="40" as="geometry"><mxRectangle width="130" height="40" as="alternateBounds"/></mxGeometry></mxCell><mxCell id="448" value="" style="shape=partialRectangle;html=1;whiteSpace=wrap;collapsible=0;dropTarget=0;pointerEvents=0;fillColor=none;top=0;left=0;bottom=0;right=0;points=[[0,0.5],[1,0.5]];portConstraint=eastwest;fontSize=10;" parent="439" vertex="1"><mxGeometry y="100" width="250" height="40" as="geometry"/></mxCell><mxCell id="449" value="&lt;span&gt;Canceled&lt;br&gt;By Patient&lt;br&gt;&lt;/span&gt;" style="shape=partialRectangle;html=1;whiteSpace=wrap;connectable=0;fillColor=none;top=0;left=0;bottom=0;right=0;overflow=hidden;pointerEvents=1;fontSize=10;" parent="448" vertex="1"><mxGeometry width="50" height="40" as="geometry"><mxRectangle width="50" height="40" as="alternateBounds"/></mxGeometry></mxCell><mxCell id="450" value="01521544894" style="shape=partialRectangle;html=1;whiteSpace=wrap;connectable=0;fillColor=none;top=0;left=0;bottom=0;right=0;overflow=hidden;pointerEvents=1;fontSize=10;" parent="448" vertex="1"><mxGeometry x="50" width="70" height="40" as="geometry"><mxRectangle width="70" height="40" as="alternateBounds"/></mxGeometry></mxCell><mxCell id="451" value="&lt;span&gt;Automatic cancelled&lt;br&gt;&lt;/span&gt;" style="shape=partialRectangle;html=1;whiteSpace=wrap;connectable=0;fillColor=#1ba1e2;top=0;left=0;bottom=0;right=0;overflow=hidden;pointerEvents=1;fontSize=10;fontColor=#ffffff;strokeColor=#006EAF;" parent="448" vertex="1"><mxGeometry x="120" width="130" height="40" as="geometry"><mxRectangle width="130" height="40" as="alternateBounds"/></mxGeometry></mxCell><mxCell id="505" value="&lt;h1&gt;Requests Handling&lt;/h1&gt;" style="text;html=1;strokeColor=none;fillColor=none;spacing=5;spacingTop=-20;whiteSpace=wrap;overflow=hidden;rounded=0;align=center;" parent="333" vertex="1"><mxGeometry x="170" y="64.00999999999999" width="270" height="45.99" as="geometry"/></mxCell><mxCell id="506" value="admin panel" style="swimlane;" parent="1" vertex="1"><mxGeometry x="59.999999999999886" y="880" width="470" height="490" as="geometry"/></mxCell><mxCell id="507" value="&lt;font style=&quot;font-size: 10px&quot;&gt;Home&amp;nbsp;&amp;nbsp;&lt;span&gt;&#9;&lt;/span&gt;&amp;nbsp;Requests&lt;span&gt;&#9;&lt;span style=&quot;white-space: pre&quot;&gt;&#9;&lt;/span&gt;&lt;/span&gt;Stock&lt;span&gt;&#9;&lt;span style=&quot;white-space: pre&quot;&gt;&#9;&lt;/span&gt;&lt;/span&gt;Donors&lt;span style=&quot;white-space: pre&quot;&gt;&#9;&lt;/span&gt;&lt;span&gt;&#9;&lt;/span&gt;Patients&lt;span&gt;&#9;&lt;span style=&quot;white-space: pre&quot;&gt;&#9;&lt;/span&gt;&lt;/span&gt;&lt;/font&gt;&lt;span style=&quot;background-color: rgba(127 , 127 , 127 , 0.1)&quot;&gt;Logout&lt;/span&gt;" style="rounded=1;whiteSpace=wrap;html=1;" parent="506" vertex="1"><mxGeometry y="24.45" width="470" height="19.56" as="geometry"/></mxCell><mxCell id="835" value="" style="group" parent="506" vertex="1" connectable="0"><mxGeometry x="82.87" y="50" width="427.13" height="420" as="geometry"/></mxCell><mxCell id="508" value="" style="group" parent="835" vertex="1" connectable="0"><mxGeometry x="5.494699538424516" y="135.99054693467835" width="385.7653004615755" height="284.0094530653216" as="geometry"/></mxCell><mxCell id="834" value="" style="group" parent="508" vertex="1" connectable="0"><mxGeometry x="-45.14215955692244" y="24.00991997007766" width="385.76530046157563" height="259.999533095244" as="geometry"/></mxCell><mxCell id="509" value="Stock" style="shape=table;startSize=30;container=1;collapsible=0;childLayout=tableLayout;fontStyle=1;align=center;pointerEvents=1;fontSize=10;" parent="834" vertex="1"><mxGeometry width="105.62793577745649" height="259.99776840450824" as="geometry"/></mxCell><mxCell id="510" value="" style="shape=partialRectangle;html=1;whiteSpace=wrap;collapsible=0;dropTarget=0;pointerEvents=0;fillColor=none;top=0;left=0;bottom=0;right=0;points=[[0,0.5],[1,0.5]];portConstraint=eastwest;fontSize=10;" parent="509" vertex="1"><mxGeometry y="30" width="105.62793577745649" height="46" as="geometry"/></mxCell><mxCell id="511" value="ID" style="shape=partialRectangle;html=1;whiteSpace=wrap;connectable=0;fillColor=none;top=0;left=0;bottom=0;right=0;overflow=hidden;pointerEvents=1;fontSize=10;" parent="510" vertex="1"><mxGeometry width="34" height="46" as="geometry"><mxRectangle width="34" height="46" as="alternateBounds"/></mxGeometry></mxCell><mxCell id="512" value="Blood Type" style="shape=partialRectangle;html=1;whiteSpace=wrap;connectable=0;fillColor=none;top=0;left=0;bottom=0;right=0;overflow=hidden;pointerEvents=1;fontSize=10;" parent="510" vertex="1"><mxGeometry x="34" width="27" height="46" as="geometry"><mxRectangle width="27" height="46" as="alternateBounds"/></mxGeometry></mxCell><mxCell id="513" value="unites" style="shape=partialRectangle;html=1;whiteSpace=wrap;connectable=0;fillColor=none;top=0;left=0;bottom=0;right=0;overflow=hidden;pointerEvents=1;fontSize=10;" parent="510" vertex="1"><mxGeometry x="61" width="45" height="46" as="geometry"><mxRectangle width="45" height="46" as="alternateBounds"/></mxGeometry></mxCell><mxCell id="514" value="" style="shape=partialRectangle;html=1;whiteSpace=wrap;collapsible=0;dropTarget=0;pointerEvents=0;fillColor=none;top=0;left=0;bottom=0;right=0;points=[[0,0.5],[1,0.5]];portConstraint=eastwest;fontSize=10;" parent="509" vertex="1"><mxGeometry y="76" width="105.62793577745649" height="61" as="geometry"/></mxCell><mxCell id="515" value="&lt;span style=&quot;font-size: 7px&quot;&gt;SAP8&lt;/span&gt;" style="shape=partialRectangle;html=1;whiteSpace=wrap;connectable=0;fillColor=none;top=0;left=0;bottom=0;right=0;overflow=hidden;pointerEvents=1;fontSize=10;" parent="514" vertex="1"><mxGeometry width="34" height="61" as="geometry"><mxRectangle width="34" height="61" as="alternateBounds"/></mxGeometry></mxCell><mxCell id="516" value="A+" style="shape=partialRectangle;html=1;whiteSpace=wrap;connectable=0;fillColor=none;top=0;left=0;bottom=0;right=0;overflow=hidden;pointerEvents=1;fontSize=10;" parent="514" vertex="1"><mxGeometry x="34" width="27" height="61" as="geometry"><mxRectangle width="27" height="61" as="alternateBounds"/></mxGeometry></mxCell><mxCell id="517" value="8" style="shape=partialRectangle;html=1;whiteSpace=wrap;connectable=0;fillColor=none;top=0;left=0;bottom=0;right=0;overflow=hidden;pointerEvents=1;fontSize=10;" parent="514" vertex="1"><mxGeometry x="61" width="45" height="61" as="geometry"><mxRectangle width="45" height="61" as="alternateBounds"/></mxGeometry></mxCell><mxCell id="518" value="" style="shape=partialRectangle;html=1;whiteSpace=wrap;collapsible=0;dropTarget=0;pointerEvents=0;fillColor=none;top=0;left=0;bottom=0;right=0;points=[[0,0.5],[1,0.5]];portConstraint=eastwest;fontSize=10;" parent="509" vertex="1"><mxGeometry y="137" width="105.62793577745649" height="62" as="geometry"/></mxCell><mxCell id="519" value="&lt;span style=&quot;font-size: 7px&quot;&gt;SAP5&lt;/span&gt;" style="shape=partialRectangle;html=1;whiteSpace=wrap;connectable=0;fillColor=none;top=0;left=0;bottom=0;right=0;overflow=hidden;pointerEvents=1;fontSize=10;" parent="518" vertex="1"><mxGeometry width="34" height="62" as="geometry"><mxRectangle width="34" height="62" as="alternateBounds"/></mxGeometry></mxCell><mxCell id="520" value="A+" style="shape=partialRectangle;html=1;whiteSpace=wrap;connectable=0;fillColor=none;top=0;left=0;bottom=0;right=0;overflow=hidden;pointerEvents=1;fontSize=10;" parent="518" vertex="1"><mxGeometry x="34" width="27" height="62" as="geometry"><mxRectangle width="27" height="62" as="alternateBounds"/></mxGeometry></mxCell><mxCell id="521" value="5" style="shape=partialRectangle;html=1;whiteSpace=wrap;connectable=0;fillColor=none;top=0;left=0;bottom=0;right=0;overflow=hidden;pointerEvents=1;fontSize=10;" parent="518" vertex="1"><mxGeometry x="61" width="45" height="62" as="geometry"><mxRectangle width="45" height="62" as="alternateBounds"/></mxGeometry></mxCell><mxCell id="631" value="" style="shape=partialRectangle;html=1;whiteSpace=wrap;collapsible=0;dropTarget=0;pointerEvents=0;fillColor=none;top=0;left=0;bottom=0;right=0;points=[[0,0.5],[1,0.5]];portConstraint=eastwest;fontSize=10;" parent="509" vertex="1"><mxGeometry y="199" width="105.62793577745649" height="61" as="geometry"/></mxCell><mxCell id="632" value="&lt;span style=&quot;font-size: 7px&quot;&gt;SABP1&lt;/span&gt;" style="shape=partialRectangle;html=1;whiteSpace=wrap;connectable=0;fillColor=none;top=0;left=0;bottom=0;right=0;overflow=hidden;pointerEvents=1;fontSize=10;" parent="631" vertex="1"><mxGeometry width="34" height="61" as="geometry"><mxRectangle width="34" height="61" as="alternateBounds"/></mxGeometry></mxCell><mxCell id="633" value="&lt;span&gt;AB+&lt;/span&gt;" style="shape=partialRectangle;html=1;whiteSpace=wrap;connectable=0;fillColor=none;top=0;left=0;bottom=0;right=0;overflow=hidden;pointerEvents=1;fontSize=10;" parent="631" vertex="1"><mxGeometry x="34" width="27" height="61" as="geometry"><mxRectangle width="27" height="61" as="alternateBounds"/></mxGeometry></mxCell><mxCell id="634" value="1" style="shape=partialRectangle;html=1;whiteSpace=wrap;connectable=0;fillColor=none;top=0;left=0;bottom=0;right=0;overflow=hidden;pointerEvents=1;fontSize=10;" parent="631" vertex="1"><mxGeometry x="61" width="45" height="61" as="geometry"><mxRectangle width="45" height="61" as="alternateBounds"/></mxGeometry></mxCell><mxCell id="522" value="Stock" style="shape=table;startSize=30;container=1;collapsible=0;childLayout=tableLayout;fontStyle=1;align=center;pointerEvents=1;fontSize=10;" parent="834" vertex="1"><mxGeometry x="105.63248286087294" width="280.1328176007027" height="259.999533095244" as="geometry"/></mxCell><mxCell id="523" value="" style="shape=partialRectangle;html=1;whiteSpace=wrap;collapsible=0;dropTarget=0;pointerEvents=0;fillColor=none;top=0;left=0;bottom=0;right=0;points=[[0,0.5],[1,0.5]];portConstraint=eastwest;fontSize=10;" parent="522" vertex="1"><mxGeometry y="30" width="280.1328176007027" height="46" as="geometry"/></mxCell><mxCell id="524" value="Req unites" style="shape=partialRectangle;html=1;whiteSpace=wrap;connectable=0;fillColor=none;top=0;left=0;bottom=0;right=0;overflow=hidden;pointerEvents=1;fontSize=10;" parent="523" vertex="1"><mxGeometry width="34" height="46" as="geometry"><mxRectangle width="34" height="46" as="alternateBounds"/></mxGeometry></mxCell><mxCell id="525" value="Avail&lt;br&gt;Unites" style="shape=partialRectangle;html=1;whiteSpace=wrap;connectable=0;fillColor=none;top=0;left=0;bottom=0;right=0;overflow=hidden;pointerEvents=1;fontSize=10;" parent="523" vertex="1"><mxGeometry x="34" width="72" height="46" as="geometry"><mxRectangle width="72" height="46" as="alternateBounds"/></mxGeometry></mxCell><mxCell id="526" value="Avail Area" style="shape=partialRectangle;html=1;whiteSpace=wrap;connectable=0;fillColor=none;top=0;left=0;bottom=0;right=0;overflow=hidden;pointerEvents=1;fontSize=10;" parent="523" vertex="1"><mxGeometry x="106" width="174" height="46" as="geometry"><mxRectangle width="174" height="46" as="alternateBounds"/></mxGeometry></mxCell><mxCell id="527" value="" style="shape=partialRectangle;html=1;whiteSpace=wrap;collapsible=0;dropTarget=0;pointerEvents=0;fillColor=none;top=0;left=0;bottom=0;right=0;points=[[0,0.5],[1,0.5]];portConstraint=eastwest;fontSize=10;" parent="522" vertex="1"><mxGeometry y="76" width="280.1328176007027" height="61" as="geometry"/></mxCell><mxCell id="528" value="2" style="shape=partialRectangle;html=1;whiteSpace=wrap;connectable=0;fillColor=none;top=0;left=0;bottom=0;right=0;overflow=hidden;pointerEvents=1;fontSize=10;" parent="527" vertex="1"><mxGeometry width="34" height="61" as="geometry"><mxRectangle width="34" height="61" as="alternateBounds"/></mxGeometry></mxCell><mxCell id="529" value="6" style="shape=partialRectangle;html=1;whiteSpace=wrap;connectable=0;fillColor=none;top=0;left=0;bottom=0;right=0;overflow=hidden;pointerEvents=1;fontSize=10;" parent="527" vertex="1"><mxGeometry x="34" width="72" height="61" as="geometry"><mxRectangle width="72" height="61" as="alternateBounds"/></mxGeometry></mxCell><mxCell id="530" value="City,DownTown Area&lt;br&gt;Hospital Name" style="shape=partialRectangle;html=1;whiteSpace=wrap;connectable=0;fillColor=none;top=0;left=0;bottom=0;right=0;overflow=hidden;pointerEvents=1;fontSize=10;" parent="527" vertex="1"><mxGeometry x="106" width="174" height="61" as="geometry"><mxRectangle width="174" height="61" as="alternateBounds"/></mxGeometry></mxCell><mxCell id="531" value="" style="shape=partialRectangle;html=1;whiteSpace=wrap;collapsible=0;dropTarget=0;pointerEvents=0;fillColor=none;top=0;left=0;bottom=0;right=0;points=[[0,0.5],[1,0.5]];portConstraint=eastwest;fontSize=10;" parent="522" vertex="1"><mxGeometry y="137" width="280.1328176007027" height="62" as="geometry"/></mxCell><mxCell id="532" value="&lt;span&gt;2&lt;/span&gt;" style="shape=partialRectangle;html=1;whiteSpace=wrap;connectable=0;fillColor=none;top=0;left=0;bottom=0;right=0;overflow=hidden;pointerEvents=1;fontSize=10;" parent="531" vertex="1"><mxGeometry width="34" height="62" as="geometry"><mxRectangle width="34" height="62" as="alternateBounds"/></mxGeometry></mxCell><mxCell id="533" value="3" style="shape=partialRectangle;html=1;whiteSpace=wrap;connectable=0;fillColor=none;top=0;left=0;bottom=0;right=0;overflow=hidden;pointerEvents=1;fontSize=10;" parent="531" vertex="1"><mxGeometry x="34" width="72" height="62" as="geometry"><mxRectangle width="72" height="62" as="alternateBounds"/></mxGeometry></mxCell><mxCell id="534" value="&lt;span&gt;City,Est Town Area&lt;br&gt;&lt;/span&gt;Clinc Name&lt;span&gt;&lt;br&gt;&lt;/span&gt;" style="shape=partialRectangle;html=1;whiteSpace=wrap;connectable=0;fillColor=none;top=0;left=0;bottom=0;right=0;overflow=hidden;pointerEvents=1;fontSize=10;" parent="531" vertex="1"><mxGeometry x="106" width="174" height="62" as="geometry"><mxRectangle width="174" height="62" as="alternateBounds"/></mxGeometry></mxCell><mxCell id="635" value="" style="shape=partialRectangle;html=1;whiteSpace=wrap;collapsible=0;dropTarget=0;pointerEvents=0;fillColor=none;top=0;left=0;bottom=0;right=0;points=[[0,0.5],[1,0.5]];portConstraint=eastwest;fontSize=10;" parent="522" vertex="1"><mxGeometry y="199" width="280.1328176007027" height="61" as="geometry"/></mxCell><mxCell id="636" value="0" style="shape=partialRectangle;html=1;whiteSpace=wrap;connectable=0;fillColor=none;top=0;left=0;bottom=0;right=0;overflow=hidden;pointerEvents=1;fontSize=10;" parent="635" vertex="1"><mxGeometry width="34" height="61" as="geometry"><mxRectangle width="34" height="61" as="alternateBounds"/></mxGeometry></mxCell><mxCell id="637" value="1" style="shape=partialRectangle;html=1;whiteSpace=wrap;connectable=0;fillColor=none;top=0;left=0;bottom=0;right=0;overflow=hidden;pointerEvents=1;fontSize=10;" parent="635" vertex="1"><mxGeometry x="34" width="72" height="61" as="geometry"><mxRectangle width="72" height="61" as="alternateBounds"/></mxGeometry></mxCell><mxCell id="638" value="&lt;span&gt;City,SouthTown Area&lt;br&gt;&lt;/span&gt;Hospital Name&lt;span&gt;&lt;br&gt;&lt;/span&gt;" style="shape=partialRectangle;html=1;whiteSpace=wrap;connectable=0;fillColor=none;top=0;left=0;bottom=0;right=0;overflow=hidden;pointerEvents=1;fontSize=10;" parent="635" vertex="1"><mxGeometry x="106" width="174" height="61" as="geometry"><mxRectangle width="174" height="61" as="alternateBounds"/></mxGeometry></mxCell><mxCell id="548" value="&lt;h1&gt;Stock&lt;/h1&gt;" style="text;html=1;strokeColor=none;fillColor=none;spacing=5;spacingTop=-20;whiteSpace=wrap;overflow=hidden;rounded=0;align=center;" parent="835" vertex="1"><mxGeometry x="45.541932929363625" width="252.28075164614006" height="45.99018496599645" as="geometry"/></mxCell><mxCell id="639" value="Totale" style="shape=table;startSize=30;container=1;collapsible=0;childLayout=tableLayout;fontStyle=1;align=center;pointerEvents=1;fontSize=10;" parent="835" vertex="1"><mxGeometry x="-35.870000000000005" y="45.99018496599645" width="128.1305906416118" height="100.00040218742431" as="geometry"/></mxCell><mxCell id="640" value="" style="shape=partialRectangle;html=1;whiteSpace=wrap;collapsible=0;dropTarget=0;pointerEvents=0;fillColor=none;top=0;left=0;bottom=0;right=0;points=[[0,0.5],[1,0.5]];portConstraint=eastwest;fontSize=10;" parent="639" vertex="1"><mxGeometry y="30" width="128.1305906416118" height="14" as="geometry"/></mxCell><mxCell id="641" value="Stat" style="shape=partialRectangle;html=1;whiteSpace=wrap;connectable=0;fillColor=none;top=0;left=0;bottom=0;right=0;overflow=hidden;pointerEvents=1;fontSize=10;" parent="640" vertex="1"><mxGeometry width="25" height="14" as="geometry"><mxRectangle width="25" height="14" as="alternateBounds"/></mxGeometry></mxCell><mxCell id="642" value="Blood Type" style="shape=partialRectangle;html=1;whiteSpace=wrap;connectable=0;fillColor=none;top=0;left=0;bottom=0;right=0;overflow=hidden;pointerEvents=1;fontSize=10;" parent="640" vertex="1"><mxGeometry x="25" width="28" height="14" as="geometry"><mxRectangle width="28" height="14" as="alternateBounds"/></mxGeometry></mxCell><mxCell id="643" value="unites" style="shape=partialRectangle;html=1;whiteSpace=wrap;connectable=0;fillColor=none;top=0;left=0;bottom=0;right=0;overflow=hidden;pointerEvents=1;fontSize=10;" parent="640" vertex="1"><mxGeometry x="53" width="75" height="14" as="geometry"><mxRectangle width="75" height="14" as="alternateBounds"/></mxGeometry></mxCell><mxCell id="644" value="" style="shape=partialRectangle;html=1;whiteSpace=wrap;collapsible=0;dropTarget=0;pointerEvents=0;fillColor=none;top=0;left=0;bottom=0;right=0;points=[[0,0.5],[1,0.5]];portConstraint=eastwest;fontSize=10;" parent="639" vertex="1"><mxGeometry y="44" width="128.1305906416118" height="19" as="geometry"/></mxCell><mxCell id="645" value="" style="shape=partialRectangle;html=1;whiteSpace=wrap;connectable=0;fillColor=#60a917;top=0;left=0;bottom=0;right=0;overflow=hidden;pointerEvents=1;fontSize=10;fontColor=#ffffff;strokeColor=#2D7600;" parent="644" vertex="1"><mxGeometry width="25" height="19" as="geometry"><mxRectangle width="25" height="19" as="alternateBounds"/></mxGeometry></mxCell><mxCell id="646" value="A+" style="shape=partialRectangle;html=1;whiteSpace=wrap;connectable=0;fillColor=none;top=0;left=0;bottom=0;right=0;overflow=hidden;pointerEvents=1;fontSize=10;" parent="644" vertex="1"><mxGeometry x="25" width="28" height="19" as="geometry"><mxRectangle width="28" height="19" as="alternateBounds"/></mxGeometry></mxCell><mxCell id="647" value="8" style="shape=partialRectangle;html=1;whiteSpace=wrap;connectable=0;fillColor=none;top=0;left=0;bottom=0;right=0;overflow=hidden;pointerEvents=1;fontSize=10;" parent="644" vertex="1"><mxGeometry x="53" width="75" height="19" as="geometry"><mxRectangle width="75" height="19" as="alternateBounds"/></mxGeometry></mxCell><mxCell id="648" value="" style="shape=partialRectangle;html=1;whiteSpace=wrap;collapsible=0;dropTarget=0;pointerEvents=0;fillColor=none;top=0;left=0;bottom=0;right=0;points=[[0,0.5],[1,0.5]];portConstraint=eastwest;fontSize=10;" parent="639" vertex="1"><mxGeometry y="63" width="128.1305906416118" height="18" as="geometry"/></mxCell><mxCell id="649" value="" style="shape=partialRectangle;html=1;whiteSpace=wrap;connectable=0;fillColor=#60a917;top=0;left=0;bottom=0;right=0;overflow=hidden;pointerEvents=1;fontSize=10;fontColor=#ffffff;strokeColor=#2D7600;" parent="648" vertex="1"><mxGeometry width="25" height="18" as="geometry"><mxRectangle width="25" height="18" as="alternateBounds"/></mxGeometry></mxCell><mxCell id="650" value="A+" style="shape=partialRectangle;html=1;whiteSpace=wrap;connectable=0;fillColor=none;top=0;left=0;bottom=0;right=0;overflow=hidden;pointerEvents=1;fontSize=10;" parent="648" vertex="1"><mxGeometry x="25" width="28" height="18" as="geometry"><mxRectangle width="28" height="18" as="alternateBounds"/></mxGeometry></mxCell><mxCell id="651" value="5" style="shape=partialRectangle;html=1;whiteSpace=wrap;connectable=0;fillColor=none;top=0;left=0;bottom=0;right=0;overflow=hidden;pointerEvents=1;fontSize=10;" parent="648" vertex="1"><mxGeometry x="53" width="75" height="18" as="geometry"><mxRectangle width="75" height="18" as="alternateBounds"/></mxGeometry></mxCell><mxCell id="652" value="" style="shape=partialRectangle;html=1;whiteSpace=wrap;collapsible=0;dropTarget=0;pointerEvents=0;fillColor=none;top=0;left=0;bottom=0;right=0;points=[[0,0.5],[1,0.5]];portConstraint=eastwest;fontSize=10;" parent="639" vertex="1"><mxGeometry y="81" width="128.1305906416118" height="19" as="geometry"/></mxCell><mxCell id="653" value="" style="shape=partialRectangle;html=1;whiteSpace=wrap;connectable=0;fillColor=#60a917;top=0;left=0;bottom=0;right=0;overflow=hidden;pointerEvents=1;fontSize=10;fontColor=#ffffff;strokeColor=#2D7600;" parent="652" vertex="1"><mxGeometry width="25" height="19" as="geometry"><mxRectangle width="25" height="19" as="alternateBounds"/></mxGeometry></mxCell><mxCell id="654" value="&lt;span&gt;AB+&lt;/span&gt;" style="shape=partialRectangle;html=1;whiteSpace=wrap;connectable=0;fillColor=none;top=0;left=0;bottom=0;right=0;overflow=hidden;pointerEvents=1;fontSize=10;" parent="652" vertex="1"><mxGeometry x="25" width="28" height="19" as="geometry"><mxRectangle width="28" height="19" as="alternateBounds"/></mxGeometry></mxCell><mxCell id="655" value="1" style="shape=partialRectangle;html=1;whiteSpace=wrap;connectable=0;fillColor=none;top=0;left=0;bottom=0;right=0;overflow=hidden;pointerEvents=1;fontSize=10;" parent="652" vertex="1"><mxGeometry x="53" width="75" height="19" as="geometry"><mxRectangle width="75" height="19" as="alternateBounds"/></mxGeometry></mxCell><mxCell id="817" value="Totale" style="shape=table;startSize=30;container=1;collapsible=0;childLayout=tableLayout;fontStyle=1;align=center;pointerEvents=1;fontSize=10;" parent="835" vertex="1"><mxGeometry x="92.2605906416118" y="45.99018496599646" width="128.1305906416118" height="100.00040218742431" as="geometry"/></mxCell><mxCell id="818" value="" style="shape=partialRectangle;html=1;whiteSpace=wrap;collapsible=0;dropTarget=0;pointerEvents=0;fillColor=none;top=0;left=0;bottom=0;right=0;points=[[0,0.5],[1,0.5]];portConstraint=eastwest;fontSize=10;" parent="817" vertex="1"><mxGeometry y="30" width="128.1305906416118" height="14" as="geometry"/></mxCell><mxCell id="819" value="Stat" style="shape=partialRectangle;html=1;whiteSpace=wrap;connectable=0;fillColor=none;top=0;left=0;bottom=0;right=0;overflow=hidden;pointerEvents=1;fontSize=10;" parent="818" vertex="1"><mxGeometry width="25" height="14" as="geometry"><mxRectangle width="25" height="14" as="alternateBounds"/></mxGeometry></mxCell><mxCell id="820" value="Blood Type" style="shape=partialRectangle;html=1;whiteSpace=wrap;connectable=0;fillColor=none;top=0;left=0;bottom=0;right=0;overflow=hidden;pointerEvents=1;fontSize=10;" parent="818" vertex="1"><mxGeometry x="25" width="28" height="14" as="geometry"><mxRectangle width="28" height="14" as="alternateBounds"/></mxGeometry></mxCell><mxCell id="821" value="unites" style="shape=partialRectangle;html=1;whiteSpace=wrap;connectable=0;fillColor=none;top=0;left=0;bottom=0;right=0;overflow=hidden;pointerEvents=1;fontSize=10;" parent="818" vertex="1"><mxGeometry x="53" width="75" height="14" as="geometry"><mxRectangle width="75" height="14" as="alternateBounds"/></mxGeometry></mxCell><mxCell id="822" value="" style="shape=partialRectangle;html=1;whiteSpace=wrap;collapsible=0;dropTarget=0;pointerEvents=0;fillColor=none;top=0;left=0;bottom=0;right=0;points=[[0,0.5],[1,0.5]];portConstraint=eastwest;fontSize=10;" parent="817" vertex="1"><mxGeometry y="44" width="128.1305906416118" height="19" as="geometry"/></mxCell><mxCell id="823" value="" style="shape=partialRectangle;html=1;whiteSpace=wrap;connectable=0;fillColor=#a20025;top=0;left=0;bottom=0;right=0;overflow=hidden;pointerEvents=1;fontSize=10;fontColor=#ffffff;strokeColor=#6F0000;" parent="822" vertex="1"><mxGeometry width="25" height="19" as="geometry"><mxRectangle width="25" height="19" as="alternateBounds"/></mxGeometry></mxCell><mxCell id="824" value="A-" style="shape=partialRectangle;html=1;whiteSpace=wrap;connectable=0;fillColor=none;top=0;left=0;bottom=0;right=0;overflow=hidden;pointerEvents=1;fontSize=10;" parent="822" vertex="1"><mxGeometry x="25" width="28" height="19" as="geometry"><mxRectangle width="28" height="19" as="alternateBounds"/></mxGeometry></mxCell><mxCell id="825" value="0" style="shape=partialRectangle;html=1;whiteSpace=wrap;connectable=0;fillColor=none;top=0;left=0;bottom=0;right=0;overflow=hidden;pointerEvents=1;fontSize=10;" parent="822" vertex="1"><mxGeometry x="53" width="75" height="19" as="geometry"><mxRectangle width="75" height="19" as="alternateBounds"/></mxGeometry></mxCell><mxCell id="826" value="" style="shape=partialRectangle;html=1;whiteSpace=wrap;collapsible=0;dropTarget=0;pointerEvents=0;fillColor=none;top=0;left=0;bottom=0;right=0;points=[[0,0.5],[1,0.5]];portConstraint=eastwest;fontSize=10;" parent="817" vertex="1"><mxGeometry y="63" width="128.1305906416118" height="18" as="geometry"/></mxCell><mxCell id="827" value="" style="shape=partialRectangle;html=1;whiteSpace=wrap;connectable=0;fillColor=#a20025;top=0;left=0;bottom=0;right=0;overflow=hidden;pointerEvents=1;fontSize=10;fontColor=#ffffff;strokeColor=#6F0000;" parent="826" vertex="1"><mxGeometry width="25" height="18" as="geometry"><mxRectangle width="25" height="18" as="alternateBounds"/></mxGeometry></mxCell><mxCell id="828" value="B-" style="shape=partialRectangle;html=1;whiteSpace=wrap;connectable=0;fillColor=none;top=0;left=0;bottom=0;right=0;overflow=hidden;pointerEvents=1;fontSize=10;" parent="826" vertex="1"><mxGeometry x="25" width="28" height="18" as="geometry"><mxRectangle width="28" height="18" as="alternateBounds"/></mxGeometry></mxCell><mxCell id="829" value="0" style="shape=partialRectangle;html=1;whiteSpace=wrap;connectable=0;fillColor=none;top=0;left=0;bottom=0;right=0;overflow=hidden;pointerEvents=1;fontSize=10;" parent="826" vertex="1"><mxGeometry x="53" width="75" height="18" as="geometry"><mxRectangle width="75" height="18" as="alternateBounds"/></mxGeometry></mxCell><mxCell id="830" value="" style="shape=partialRectangle;html=1;whiteSpace=wrap;collapsible=0;dropTarget=0;pointerEvents=0;fillColor=none;top=0;left=0;bottom=0;right=0;points=[[0,0.5],[1,0.5]];portConstraint=eastwest;fontSize=10;" parent="817" vertex="1"><mxGeometry y="81" width="128.1305906416118" height="19" as="geometry"/></mxCell><mxCell id="831" value="" style="shape=partialRectangle;html=1;whiteSpace=wrap;connectable=0;fillColor=#a20025;top=0;left=0;bottom=0;right=0;overflow=hidden;pointerEvents=1;fontSize=10;fontColor=#ffffff;strokeColor=#6F0000;" parent="830" vertex="1"><mxGeometry width="25" height="19" as="geometry"><mxRectangle width="25" height="19" as="alternateBounds"/></mxGeometry></mxCell><mxCell id="832" value="&lt;span&gt;AB-&lt;/span&gt;" style="shape=partialRectangle;html=1;whiteSpace=wrap;connectable=0;fillColor=none;top=0;left=0;bottom=0;right=0;overflow=hidden;pointerEvents=1;fontSize=10;" parent="830" vertex="1"><mxGeometry x="25" width="28" height="19" as="geometry"><mxRectangle width="28" height="19" as="alternateBounds"/></mxGeometry></mxCell><mxCell id="833" value="0" style="shape=partialRectangle;html=1;whiteSpace=wrap;connectable=0;fillColor=none;top=0;left=0;bottom=0;right=0;overflow=hidden;pointerEvents=1;fontSize=10;" parent="830" vertex="1"><mxGeometry x="53" width="75" height="19" as="geometry"><mxRectangle width="75" height="19" as="alternateBounds"/></mxGeometry></mxCell><mxCell id="800" value="Totale" style="shape=table;startSize=30;container=1;collapsible=0;childLayout=tableLayout;fontStyle=1;align=center;pointerEvents=1;fontSize=10;" parent="835" vertex="1"><mxGeometry x="220.3911812832236" y="45.99018496599646" width="128.1305906416118" height="100.00040218742431" as="geometry"/></mxCell><mxCell id="801" value="" style="shape=partialRectangle;html=1;whiteSpace=wrap;collapsible=0;dropTarget=0;pointerEvents=0;fillColor=none;top=0;left=0;bottom=0;right=0;points=[[0,0.5],[1,0.5]];portConstraint=eastwest;fontSize=10;" parent="800" vertex="1"><mxGeometry y="30" width="128.1305906416118" height="14" as="geometry"/></mxCell><mxCell id="802" value="Stat" style="shape=partialRectangle;html=1;whiteSpace=wrap;connectable=0;fillColor=none;top=0;left=0;bottom=0;right=0;overflow=hidden;pointerEvents=1;fontSize=10;" parent="801" vertex="1"><mxGeometry width="25" height="14" as="geometry"><mxRectangle width="25" height="14" as="alternateBounds"/></mxGeometry></mxCell><mxCell id="803" value="Blood Type" style="shape=partialRectangle;html=1;whiteSpace=wrap;connectable=0;fillColor=none;top=0;left=0;bottom=0;right=0;overflow=hidden;pointerEvents=1;fontSize=10;" parent="801" vertex="1"><mxGeometry x="25" width="28" height="14" as="geometry"><mxRectangle width="28" height="14" as="alternateBounds"/></mxGeometry></mxCell><mxCell id="804" value="unites" style="shape=partialRectangle;html=1;whiteSpace=wrap;connectable=0;fillColor=none;top=0;left=0;bottom=0;right=0;overflow=hidden;pointerEvents=1;fontSize=10;" parent="801" vertex="1"><mxGeometry x="53" width="75" height="14" as="geometry"><mxRectangle width="75" height="14" as="alternateBounds"/></mxGeometry></mxCell><mxCell id="805" value="" style="shape=partialRectangle;html=1;whiteSpace=wrap;collapsible=0;dropTarget=0;pointerEvents=0;fillColor=none;top=0;left=0;bottom=0;right=0;points=[[0,0.5],[1,0.5]];portConstraint=eastwest;fontSize=10;" parent="800" vertex="1"><mxGeometry y="44" width="128.1305906416118" height="19" as="geometry"/></mxCell><mxCell id="806" value="" style="shape=partialRectangle;html=1;whiteSpace=wrap;connectable=0;fillColor=#a20025;top=0;left=0;bottom=0;right=0;overflow=hidden;pointerEvents=1;fontSize=10;fontColor=#ffffff;strokeColor=#6F0000;" parent="805" vertex="1"><mxGeometry width="25" height="19" as="geometry"><mxRectangle width="25" height="19" as="alternateBounds"/></mxGeometry></mxCell><mxCell id="807" value="O+" style="shape=partialRectangle;html=1;whiteSpace=wrap;connectable=0;fillColor=none;top=0;left=0;bottom=0;right=0;overflow=hidden;pointerEvents=1;fontSize=10;" parent="805" vertex="1"><mxGeometry x="25" width="28" height="19" as="geometry"><mxRectangle width="28" height="19" as="alternateBounds"/></mxGeometry></mxCell><mxCell id="808" value="0" style="shape=partialRectangle;html=1;whiteSpace=wrap;connectable=0;fillColor=none;top=0;left=0;bottom=0;right=0;overflow=hidden;pointerEvents=1;fontSize=10;" parent="805" vertex="1"><mxGeometry x="53" width="75" height="19" as="geometry"><mxRectangle width="75" height="19" as="alternateBounds"/></mxGeometry></mxCell><mxCell id="809" value="" style="shape=partialRectangle;html=1;whiteSpace=wrap;collapsible=0;dropTarget=0;pointerEvents=0;fillColor=none;top=0;left=0;bottom=0;right=0;points=[[0,0.5],[1,0.5]];portConstraint=eastwest;fontSize=10;" parent="800" vertex="1"><mxGeometry y="63" width="128.1305906416118" height="18" as="geometry"/></mxCell><mxCell id="810" value="" style="shape=partialRectangle;html=1;whiteSpace=wrap;connectable=0;fillColor=#a20025;top=0;left=0;bottom=0;right=0;overflow=hidden;pointerEvents=1;fontSize=10;fontColor=#ffffff;strokeColor=#6F0000;" parent="809" vertex="1"><mxGeometry width="25" height="18" as="geometry"><mxRectangle width="25" height="18" as="alternateBounds"/></mxGeometry></mxCell><mxCell id="811" value="O-" style="shape=partialRectangle;html=1;whiteSpace=wrap;connectable=0;fillColor=none;top=0;left=0;bottom=0;right=0;overflow=hidden;pointerEvents=1;fontSize=10;" parent="809" vertex="1"><mxGeometry x="25" width="28" height="18" as="geometry"><mxRectangle width="28" height="18" as="alternateBounds"/></mxGeometry></mxCell><mxCell id="812" value="0" style="shape=partialRectangle;html=1;whiteSpace=wrap;connectable=0;fillColor=none;top=0;left=0;bottom=0;right=0;overflow=hidden;pointerEvents=1;fontSize=10;" parent="809" vertex="1"><mxGeometry x="53" width="75" height="18" as="geometry"><mxRectangle width="75" height="18" as="alternateBounds"/></mxGeometry></mxCell><mxCell id="813" value="" style="shape=partialRectangle;html=1;whiteSpace=wrap;collapsible=0;dropTarget=0;pointerEvents=0;fillColor=none;top=0;left=0;bottom=0;right=0;points=[[0,0.5],[1,0.5]];portConstraint=eastwest;fontSize=10;" parent="800" vertex="1"><mxGeometry y="81" width="128.1305906416118" height="19" as="geometry"/></mxCell><mxCell id="814" value="" style="shape=partialRectangle;html=1;whiteSpace=wrap;connectable=0;fillColor=#a20025;top=0;left=0;bottom=0;right=0;overflow=hidden;pointerEvents=1;fontSize=10;fontColor=#ffffff;strokeColor=#6F0000;" parent="813" vertex="1"><mxGeometry width="25" height="19" as="geometry"><mxRectangle width="25" height="19" as="alternateBounds"/></mxGeometry></mxCell><mxCell id="815" value="&lt;span&gt;Totale&lt;/span&gt;" style="shape=partialRectangle;html=1;whiteSpace=wrap;connectable=0;fillColor=none;top=0;left=0;bottom=0;right=0;overflow=hidden;pointerEvents=1;fontSize=10;" parent="813" vertex="1"><mxGeometry x="25" width="28" height="19" as="geometry"><mxRectangle width="28" height="19" as="alternateBounds"/></mxGeometry></mxCell><mxCell id="816" value="14" style="shape=partialRectangle;html=1;whiteSpace=wrap;connectable=0;fillColor=none;top=0;left=0;bottom=0;right=0;overflow=hidden;pointerEvents=1;fontSize=10;" parent="813" vertex="1"><mxGeometry x="53" width="75" height="19" as="geometry"><mxRectangle width="75" height="19" as="alternateBounds"/></mxGeometry></mxCell><mxCell id="1288" style="edgeStyle=none;html=1;entryX=0.5;entryY=0;entryDx=0;entryDy=0;strokeWidth=8;exitX=0.75;exitY=1;exitDx=0;exitDy=0;fillColor=#dae8fc;strokeColor=#6c8ebf;" parent="1" source="1005" target="304" edge="1"><mxGeometry relative="1" as="geometry"><mxPoint x="1379" y="260" as="sourcePoint"/><Array as="points"><mxPoint x="1329" y="280"/><mxPoint x="1309" y="300"/></Array></mxGeometry></mxCell><mxCell id="1001" value="Login Page" style="swimlane;" parent="1" vertex="1"><mxGeometry x="1181.6" y="60" width="380" height="205.37" as="geometry"/></mxCell><mxCell id="1004" value="Home&amp;nbsp; &amp;nbsp; About Us&amp;nbsp; &amp;nbsp; Contact Us&amp;nbsp; &amp;nbsp;Requests&lt;span style=&quot;white-space: pre&quot;&gt;&#9;&lt;/span&gt;Donate&lt;span style=&quot;white-space: pre&quot;&gt;&#9;&lt;/span&gt;Logout" style="rounded=1;whiteSpace=wrap;html=1;" parent="1001" vertex="1"><mxGeometry y="24.45" width="380" height="19.56" as="geometry"/></mxCell><mxCell id="1008" value="" style="group;strokeColor=default;" parent="1001" vertex="1" connectable="0"><mxGeometry x="20" y="50" width="170.0007729468599" height="130" as="geometry"/></mxCell><mxCell id="1005" value="&lt;h1&gt;Donate&amp;nbsp;&lt;/h1&gt;&lt;p&gt;Lorem ipsum dolor sit amet, consectetur adipisicing elit, sed do eiusmod tempor incididunt ut labore et dolore magna aliqua.&lt;/p&gt;" style="text;html=1;strokeColor=none;fillColor=none;spacing=5;spacingTop=-20;whiteSpace=wrap;overflow=hidden;rounded=0;" parent="1008" vertex="1"><mxGeometry width="170" height="130" as="geometry"/></mxCell><mxCell id="1003" value="&lt;font style=&quot;font-size: 10px&quot;&gt;Reserve&lt;/font&gt;" style="rounded=1;whiteSpace=wrap;html=1;" parent="1008" vertex="1"><mxGeometry x="108.45487922705314" y="110.44" width="61.54589371980676" height="19.55882352941176" as="geometry"/></mxCell><mxCell id="1009" value="" style="group;strokeColor=default;" parent="1001" vertex="1" connectable="0"><mxGeometry x="200" y="50" width="167.05077294685992" height="130" as="geometry"/></mxCell><mxCell id="1002" value="&lt;h1&gt;&amp;nbsp;Request&lt;/h1&gt;&lt;p&gt;Lorem ipsum dolor sit amet, consectetur adipisicing elit, sed do eiusmod tempor incididunt ut labore et dolore magna aliqua.&lt;/p&gt;" style="text;html=1;strokeColor=none;fillColor=none;spacing=5;spacingTop=-20;whiteSpace=wrap;overflow=hidden;rounded=0;" parent="1009" vertex="1"><mxGeometry width="167.05" height="130" as="geometry"/></mxCell><mxCell id="1006" value="&lt;font style=&quot;font-size: 10px&quot;&gt;Creat&amp;nbsp;&lt;/font&gt;" style="rounded=1;whiteSpace=wrap;html=1;" parent="1009" vertex="1"><mxGeometry x="105.50487922705315" y="110.44000000000003" width="61.54589371980676" height="19.55882352941176" as="geometry"/></mxCell><mxCell id="1372" style="edgeStyle=none;html=1;exitX=0.25;exitY=1;exitDx=0;exitDy=0;entryX=0.5;entryY=0;entryDx=0;entryDy=0;strokeWidth=5;fillColor=#6a00ff;strokeColor=#3700CC;" parent="1" source="1135" target="333" edge="1"><mxGeometry relative="1" as="geometry"><Array as="points"><mxPoint x="1650" y="800"/><mxPoint x="859" y="800"/></Array></mxGeometry></mxCell><mxCell id="1135" value="Requests Page" style="swimlane;" parent="1" vertex="1"><mxGeometry x="1510" y="518.99" width="580" height="190.93" as="geometry"/></mxCell><mxCell id="1136" value="Home&amp;nbsp; &amp;nbsp; About Us&amp;nbsp; &amp;nbsp; Contact Us&amp;nbsp; &amp;nbsp;Requests&lt;span style=&quot;white-space: pre&quot;&gt;&#9;&lt;/span&gt;Logout" style="rounded=1;whiteSpace=wrap;html=1;" parent="1135" vertex="1"><mxGeometry y="24.45" width="580" height="19.56" as="geometry"/></mxCell><mxCell id="1223" value="Requests Table" style="shape=table;startSize=30;container=1;collapsible=0;childLayout=tableLayout;fontStyle=1;align=center;pointerEvents=1;fontSize=10;" parent="1135" vertex="1"><mxGeometry x="342.85" y="59.290000000000006" width="227.15" height="100" as="geometry"/></mxCell><mxCell id="1224" value="" style="shape=partialRectangle;html=1;whiteSpace=wrap;collapsible=0;dropTarget=0;pointerEvents=0;fillColor=none;top=0;left=0;bottom=0;right=0;points=[[0,0.5],[1,0.5]];portConstraint=eastwest;fontSize=10;" parent="1223" vertex="1"><mxGeometry y="30" width="227.15" height="30" as="geometry"/></mxCell><mxCell id="1225" value="Req&lt;br&gt;State" style="shape=partialRectangle;html=1;whiteSpace=wrap;connectable=0;fillColor=none;top=0;left=0;bottom=0;right=0;overflow=hidden;pointerEvents=1;fontSize=10;" parent="1224" vertex="1"><mxGeometry width="45" height="30" as="geometry"><mxRectangle width="45" height="30" as="alternateBounds"/></mxGeometry></mxCell><mxCell id="1226" value="Phone" style="shape=partialRectangle;html=1;whiteSpace=wrap;connectable=0;fillColor=none;top=0;left=0;bottom=0;right=0;overflow=hidden;pointerEvents=1;fontSize=10;" parent="1224" vertex="1"><mxGeometry x="45" width="64" height="30" as="geometry"><mxRectangle width="64" height="30" as="alternateBounds"/></mxGeometry></mxCell><mxCell id="1227" value="Approve" style="shape=partialRectangle;html=1;whiteSpace=wrap;connectable=0;fillColor=none;top=0;left=0;bottom=0;right=0;overflow=hidden;pointerEvents=1;fontSize=10;" parent="1224" vertex="1"><mxGeometry x="109" width="118" height="30" as="geometry"><mxRectangle width="118" height="30" as="alternateBounds"/></mxGeometry></mxCell><mxCell id="1228" value="" style="shape=partialRectangle;html=1;whiteSpace=wrap;collapsible=0;dropTarget=0;pointerEvents=0;fillColor=none;top=0;left=0;bottom=0;right=0;points=[[0,0.5],[1,0.5]];portConstraint=eastwest;fontSize=10;" parent="1223" vertex="1"><mxGeometry y="60" width="227.15" height="40" as="geometry"/></mxCell><mxCell id="1229" value="Ergent" style="shape=partialRectangle;html=1;whiteSpace=wrap;connectable=0;fillColor=none;top=0;left=0;bottom=0;right=0;overflow=hidden;pointerEvents=1;fontSize=10;" parent="1228" vertex="1"><mxGeometry width="45" height="40" as="geometry"><mxRectangle width="45" height="40" as="alternateBounds"/></mxGeometry></mxCell><mxCell id="1230" value="01111544894" style="shape=partialRectangle;html=1;whiteSpace=wrap;connectable=0;fillColor=none;top=0;left=0;bottom=0;right=0;overflow=hidden;pointerEvents=1;fontSize=10;" parent="1228" vertex="1"><mxGeometry x="45" width="64" height="40" as="geometry"><mxRectangle width="64" height="40" as="alternateBounds"/></mxGeometry></mxCell><mxCell id="1231" value="&lt;font color=&quot;#33ff33&quot;&gt;Pending&lt;/font&gt;" style="shape=partialRectangle;html=1;whiteSpace=wrap;connectable=0;fillColor=none;top=0;left=0;bottom=0;right=0;overflow=hidden;pointerEvents=1;fontSize=10;fontColor=#ffffff;strokeColor=none;" parent="1228" vertex="1"><mxGeometry x="109" width="118" height="40" as="geometry"><mxRectangle width="118" height="40" as="alternateBounds"/></mxGeometry></mxCell><mxCell id="1197" value="Requests Table" style="shape=table;startSize=30;container=1;collapsible=0;childLayout=tableLayout;fontStyle=1;align=center;pointerEvents=1;fontSize=10;" parent="1135" vertex="1"><mxGeometry x="10" y="59.28999999999999" width="91.12529557395729" height="99.99823531636156" as="geometry"/></mxCell><mxCell id="1198" value="" style="shape=partialRectangle;html=1;whiteSpace=wrap;collapsible=0;dropTarget=0;pointerEvents=0;fillColor=none;top=0;left=0;bottom=0;right=0;points=[[0,0.5],[1,0.5]];portConstraint=eastwest;fontSize=10;" parent="1197" vertex="1"><mxGeometry y="30" width="91.12529557395729" height="30" as="geometry"/></mxCell><mxCell id="1199" value="ID" style="shape=partialRectangle;html=1;whiteSpace=wrap;connectable=0;fillColor=none;top=0;left=0;bottom=0;right=0;overflow=hidden;pointerEvents=1;fontSize=10;" parent="1198" vertex="1"><mxGeometry width="23" height="30" as="geometry"><mxRectangle width="23" height="30" as="alternateBounds"/></mxGeometry></mxCell><mxCell id="1200" value="Blood Type" style="shape=partialRectangle;html=1;whiteSpace=wrap;connectable=0;fillColor=none;top=0;left=0;bottom=0;right=0;overflow=hidden;pointerEvents=1;fontSize=10;" parent="1198" vertex="1"><mxGeometry x="23" width="29" height="30" as="geometry"><mxRectangle width="29" height="30" as="alternateBounds"/></mxGeometry></mxCell><mxCell id="1201" value="&amp;nbsp;unites" style="shape=partialRectangle;html=1;whiteSpace=wrap;connectable=0;fillColor=none;top=0;left=0;bottom=0;right=0;overflow=hidden;pointerEvents=1;fontSize=10;" parent="1198" vertex="1"><mxGeometry x="52" width="39" height="30" as="geometry"><mxRectangle width="39" height="30" as="alternateBounds"/></mxGeometry></mxCell><mxCell id="1202" value="" style="shape=partialRectangle;html=1;whiteSpace=wrap;collapsible=0;dropTarget=0;pointerEvents=0;fillColor=none;top=0;left=0;bottom=0;right=0;points=[[0,0.5],[1,0.5]];portConstraint=eastwest;fontSize=10;" parent="1197" vertex="1"><mxGeometry y="60" width="91.12529557395729" height="40" as="geometry"/></mxCell><mxCell id="1203" value="&lt;font style=&quot;font-size: 7px&quot;&gt;AP180&lt;/font&gt;" style="shape=partialRectangle;html=1;whiteSpace=wrap;connectable=0;fillColor=none;top=0;left=0;bottom=0;right=0;overflow=hidden;pointerEvents=1;fontSize=10;" parent="1202" vertex="1"><mxGeometry width="23" height="40" as="geometry"><mxRectangle width="23" height="40" as="alternateBounds"/></mxGeometry></mxCell><mxCell id="1204" value="A+" style="shape=partialRectangle;html=1;whiteSpace=wrap;connectable=0;fillColor=none;top=0;left=0;bottom=0;right=0;overflow=hidden;pointerEvents=1;fontSize=10;" parent="1202" vertex="1"><mxGeometry x="23" width="29" height="40" as="geometry"><mxRectangle width="29" height="40" as="alternateBounds"/></mxGeometry></mxCell><mxCell id="1205" value="2" style="shape=partialRectangle;html=1;whiteSpace=wrap;connectable=0;fillColor=none;top=0;left=0;bottom=0;right=0;overflow=hidden;pointerEvents=1;fontSize=10;" parent="1202" vertex="1"><mxGeometry x="52" width="39" height="40" as="geometry"><mxRectangle width="39" height="40" as="alternateBounds"/></mxGeometry></mxCell><mxCell id="1210" value="Requests Table" style="shape=table;startSize=30;container=1;collapsible=0;childLayout=tableLayout;fontStyle=1;align=center;pointerEvents=1;fontSize=10;" parent="1135" vertex="1"><mxGeometry x="101.12921834606561" y="59.28999999999999" width="241.67078165393443" height="100" as="geometry"/></mxCell><mxCell id="1211" value="" style="shape=partialRectangle;html=1;whiteSpace=wrap;collapsible=0;dropTarget=0;pointerEvents=0;fillColor=none;top=0;left=0;bottom=0;right=0;points=[[0,0.5],[1,0.5]];portConstraint=eastwest;fontSize=10;" parent="1210" vertex="1"><mxGeometry y="30" width="241.67078165393443" height="30" as="geometry"/></mxCell><mxCell id="1212" value="BState" style="shape=partialRectangle;html=1;whiteSpace=wrap;connectable=0;fillColor=none;top=0;left=0;bottom=0;right=0;overflow=hidden;pointerEvents=1;fontSize=10;" parent="1211" vertex="1"><mxGeometry width="29" height="30" as="geometry"><mxRectangle width="29" height="30" as="alternateBounds"/></mxGeometry></mxCell><mxCell id="1213" value="Req Time" style="shape=partialRectangle;html=1;whiteSpace=wrap;connectable=0;fillColor=none;top=0;left=0;bottom=0;right=0;overflow=hidden;pointerEvents=1;fontSize=10;" parent="1211" vertex="1"><mxGeometry x="29" width="62" height="30" as="geometry"><mxRectangle width="62" height="30" as="alternateBounds"/></mxGeometry></mxCell><mxCell id="1214" value="Req Area" style="shape=partialRectangle;html=1;whiteSpace=wrap;connectable=0;fillColor=none;top=0;left=0;bottom=0;right=0;overflow=hidden;pointerEvents=1;fontSize=10;" parent="1211" vertex="1"><mxGeometry x="91" width="151" height="30" as="geometry"><mxRectangle width="151" height="30" as="alternateBounds"/></mxGeometry></mxCell><mxCell id="1215" value="" style="shape=partialRectangle;html=1;whiteSpace=wrap;collapsible=0;dropTarget=0;pointerEvents=0;fillColor=none;top=0;left=0;bottom=0;right=0;points=[[0,0.5],[1,0.5]];portConstraint=eastwest;fontSize=10;" parent="1210" vertex="1"><mxGeometry y="60" width="241.67078165393443" height="40" as="geometry"/></mxCell><mxCell id="1216" value="Avail" style="shape=partialRectangle;html=1;whiteSpace=wrap;connectable=0;fillColor=none;top=0;left=0;bottom=0;right=0;overflow=hidden;pointerEvents=1;fontSize=10;" parent="1215" vertex="1"><mxGeometry width="29" height="40" as="geometry"><mxRectangle width="29" height="40" as="alternateBounds"/></mxGeometry></mxCell><mxCell id="1217" value="2:05 PM&lt;br&gt;25/3/2022" style="shape=partialRectangle;html=1;whiteSpace=wrap;connectable=0;fillColor=none;top=0;left=0;bottom=0;right=0;overflow=hidden;pointerEvents=1;fontSize=10;" parent="1215" vertex="1"><mxGeometry x="29" width="62" height="40" as="geometry"><mxRectangle width="62" height="40" as="alternateBounds"/></mxGeometry></mxCell><mxCell id="1218" value="City,DownTown Area&lt;br&gt;Hospital Name" style="shape=partialRectangle;html=1;whiteSpace=wrap;connectable=0;fillColor=none;top=0;left=0;bottom=0;right=0;overflow=hidden;pointerEvents=1;fontSize=10;" parent="1215" vertex="1"><mxGeometry x="91" width="151" height="40" as="geometry"><mxRectangle width="151" height="40" as="alternateBounds"/></mxGeometry></mxCell><mxCell id="1373" style="edgeStyle=none;html=1;strokeWidth=5;fillColor=#1ba1e2;strokeColor=#006EAF;entryX=0.5;entryY=0;entryDx=0;entryDy=0;" parent="1" target="836" edge="1"><mxGeometry relative="1" as="geometry"><mxPoint x="1310" y="710" as="sourcePoint"/><mxPoint x="1340" y="920" as="targetPoint"/><Array as="points"><mxPoint x="1310" y="780"/><mxPoint x="1772" y="780"/></Array></mxGeometry></mxCell><mxCell id="34" value="Donate 2 Reservation" style="swimlane;fontStyle=0;startSize=23;" parent="1" vertex="1"><mxGeometry x="1170.6" y="565.92" width="278.4" height="144" as="geometry"/></mxCell><mxCell id="180" value="&lt;font style=&quot;font-size: 15px&quot;&gt;You have selected the following&lt;br&gt;&lt;br&gt;Date:__/__/___&lt;br&gt;Hospital/Campus/Clinc:__,___,Area&lt;br&gt;&lt;/font&gt;" style="text;html=1;align=left;verticalAlign=middle;resizable=0;points=[];autosize=1;strokeColor=none;fillColor=none;" parent="34" vertex="1"><mxGeometry x="10.436399999999999" y="43.99142857142858" width="250" height="70" as="geometry"/></mxCell><mxCell id="1250" value="" style="group" parent="1" vertex="1" connectable="0"><mxGeometry x="1340" y="880" width="861.5900000000001" height="540" as="geometry"/></mxCell><mxCell id="836" value="admin panel" style="swimlane;" parent="1250" vertex="1"><mxGeometry x="1.5900000000001455" width="860" height="260" as="geometry"/></mxCell><mxCell id="837" value="&lt;blockquote style=&quot;margin: 0 0 0 40px ; border: none ; padding: 0px&quot;&gt;&lt;font style=&quot;font-size: 10px&quot;&gt;Home&amp;nbsp;&lt;span&gt;&#9;&lt;span style=&quot;white-space: pre&quot;&gt;&#9;&lt;/span&gt;&lt;/span&gt; Requests&lt;span style=&quot;white-space: pre&quot;&gt;&#9;&lt;/span&gt;Stock&lt;span style=&quot;white-space: pre&quot;&gt;&#9;&lt;/span&gt;Donors&lt;span style=&quot;white-space: pre&quot;&gt;&#9;&lt;/span&gt;Patients&lt;span style=&quot;white-space: pre&quot;&gt;&#9;&lt;/span&gt;&lt;/font&gt;Logout&lt;/blockquote&gt;" style="rounded=1;whiteSpace=wrap;html=1;" parent="836" vertex="1"><mxGeometry y="24.45" width="860" height="19.56" as="geometry"/></mxCell><mxCell id="838" value="" style="group" parent="836" vertex="1" connectable="0"><mxGeometry x="15.68" y="110" width="378.00000000000006" height="140" as="geometry"/></mxCell><mxCell id="852" value="Donors " style="shape=table;startSize=30;container=1;collapsible=0;childLayout=tableLayout;fontStyle=1;align=center;pointerEvents=1;fontSize=10;" parent="838" vertex="1"><mxGeometry x="1.2974571859535521e-14" width="228.25108199959334" height="140" as="geometry"/></mxCell><mxCell id="853" value="" style="shape=partialRectangle;html=1;whiteSpace=wrap;collapsible=0;dropTarget=0;pointerEvents=0;fillColor=none;top=0;left=0;bottom=0;right=0;points=[[0,0.5],[1,0.5]];portConstraint=eastwest;fontSize=10;" parent="852" vertex="1"><mxGeometry y="30" width="228.25108199959334" height="30" as="geometry"/></mxCell><mxCell id="854" value="&lt;span&gt;ID&lt;/span&gt;" style="shape=partialRectangle;html=1;whiteSpace=wrap;connectable=0;fillColor=none;top=0;left=0;bottom=0;right=0;overflow=hidden;pointerEvents=1;fontSize=10;" parent="853" vertex="1"><mxGeometry width="27" height="30" as="geometry"><mxRectangle width="27" height="30" as="alternateBounds"/></mxGeometry></mxCell><mxCell id="855" value="Donition Time" style="shape=partialRectangle;html=1;whiteSpace=wrap;connectable=0;fillColor=none;top=0;left=0;bottom=0;right=0;overflow=hidden;pointerEvents=1;fontSize=10;" parent="853" vertex="1"><mxGeometry x="27" width="57" height="30" as="geometry"><mxRectangle width="57" height="30" as="alternateBounds"/></mxGeometry></mxCell><mxCell id="856" value="Donition&amp;nbsp;Area" style="shape=partialRectangle;html=1;whiteSpace=wrap;connectable=0;fillColor=none;top=0;left=0;bottom=0;right=0;overflow=hidden;pointerEvents=1;fontSize=10;" parent="853" vertex="1"><mxGeometry x="84" width="144" height="30" as="geometry"><mxRectangle width="144" height="30" as="alternateBounds"/></mxGeometry></mxCell><mxCell id="857" value="" style="shape=partialRectangle;html=1;whiteSpace=wrap;collapsible=0;dropTarget=0;pointerEvents=0;fillColor=none;top=0;left=0;bottom=0;right=0;points=[[0,0.5],[1,0.5]];portConstraint=eastwest;fontSize=10;" parent="852" vertex="1"><mxGeometry y="60" width="228.25108199959334" height="40" as="geometry"/></mxCell><mxCell id="858" value="D253" style="shape=partialRectangle;html=1;whiteSpace=wrap;connectable=0;fillColor=none;top=0;left=0;bottom=0;right=0;overflow=hidden;pointerEvents=1;fontSize=10;" parent="857" vertex="1"><mxGeometry width="27" height="40" as="geometry"><mxRectangle width="27" height="40" as="alternateBounds"/></mxGeometry></mxCell><mxCell id="859" value="2:05 PM&lt;br&gt;25/3/2022" style="shape=partialRectangle;html=1;whiteSpace=wrap;connectable=0;fillColor=none;top=0;left=0;bottom=0;right=0;overflow=hidden;pointerEvents=1;fontSize=10;" parent="857" vertex="1"><mxGeometry x="27" width="57" height="40" as="geometry"><mxRectangle width="57" height="40" as="alternateBounds"/></mxGeometry></mxCell><mxCell id="860" value="City,DownTown Area&lt;br&gt;Hospital Name" style="shape=partialRectangle;html=1;whiteSpace=wrap;connectable=0;fillColor=none;top=0;left=0;bottom=0;right=0;overflow=hidden;pointerEvents=1;fontSize=10;" parent="857" vertex="1"><mxGeometry x="84" width="144" height="40" as="geometry"><mxRectangle width="144" height="40" as="alternateBounds"/></mxGeometry></mxCell><mxCell id="861" value="" style="shape=partialRectangle;html=1;whiteSpace=wrap;collapsible=0;dropTarget=0;pointerEvents=0;fillColor=none;top=0;left=0;bottom=0;right=0;points=[[0,0.5],[1,0.5]];portConstraint=eastwest;fontSize=10;" parent="852" vertex="1"><mxGeometry y="100" width="228.25108199959334" height="40" as="geometry"/></mxCell><mxCell id="862" value="&lt;span&gt;D254&lt;/span&gt;" style="shape=partialRectangle;html=1;whiteSpace=wrap;connectable=0;fillColor=none;top=0;left=0;bottom=0;right=0;overflow=hidden;pointerEvents=1;fontSize=10;" parent="861" vertex="1"><mxGeometry width="27" height="40" as="geometry"><mxRectangle width="27" height="40" as="alternateBounds"/></mxGeometry></mxCell><mxCell id="863" value="2:08 PM&lt;br&gt;25/3/2022" style="shape=partialRectangle;html=1;whiteSpace=wrap;connectable=0;fillColor=none;top=0;left=0;bottom=0;right=0;overflow=hidden;pointerEvents=1;fontSize=10;" parent="861" vertex="1"><mxGeometry x="27" width="57" height="40" as="geometry"><mxRectangle width="57" height="40" as="alternateBounds"/></mxGeometry></mxCell><mxCell id="864" value="&lt;span&gt;City,West Town Area&lt;br&gt;&lt;/span&gt;Clinc Name&lt;span&gt;&lt;br&gt;&lt;/span&gt;" style="shape=partialRectangle;html=1;whiteSpace=wrap;connectable=0;fillColor=none;top=0;left=0;bottom=0;right=0;overflow=hidden;pointerEvents=1;fontSize=10;" parent="861" vertex="1"><mxGeometry x="84" width="144" height="40" as="geometry"><mxRectangle width="144" height="40" as="alternateBounds"/></mxGeometry></mxCell><mxCell id="865" value="Donors " style="shape=table;startSize=30;container=1;collapsible=0;childLayout=tableLayout;fontStyle=1;align=center;pointerEvents=1;fontSize=10;" parent="838" vertex="1"><mxGeometry x="228.00000000000006" width="150" height="140" as="geometry"/></mxCell><mxCell id="866" value="" style="shape=partialRectangle;html=1;whiteSpace=wrap;collapsible=0;dropTarget=0;pointerEvents=0;fillColor=none;top=0;left=0;bottom=0;right=0;points=[[0,0.5],[1,0.5]];portConstraint=eastwest;fontSize=10;" parent="865" vertex="1"><mxGeometry y="30" width="150" height="30" as="geometry"/></mxCell><mxCell id="867" value="Name" style="shape=partialRectangle;html=1;whiteSpace=wrap;connectable=0;fillColor=none;top=0;left=0;bottom=0;right=0;overflow=hidden;pointerEvents=1;fontSize=10;" parent="866" vertex="1"><mxGeometry width="45" height="30" as="geometry"><mxRectangle width="45" height="30" as="alternateBounds"/></mxGeometry></mxCell><mxCell id="868" value="Phone" style="shape=partialRectangle;html=1;whiteSpace=wrap;connectable=0;fillColor=none;top=0;left=0;bottom=0;right=0;overflow=hidden;pointerEvents=1;fontSize=10;" parent="866" vertex="1"><mxGeometry x="45" width="50" height="30" as="geometry"><mxRectangle width="50" height="30" as="alternateBounds"/></mxGeometry></mxCell><mxCell id="869" value="Health ID" style="shape=partialRectangle;html=1;whiteSpace=wrap;connectable=0;fillColor=none;top=0;left=0;bottom=0;right=0;overflow=hidden;pointerEvents=1;fontSize=10;" parent="866" vertex="1"><mxGeometry x="95" width="55" height="30" as="geometry"><mxRectangle width="55" height="30" as="alternateBounds"/></mxGeometry></mxCell><mxCell id="870" value="" style="shape=partialRectangle;html=1;whiteSpace=wrap;collapsible=0;dropTarget=0;pointerEvents=0;fillColor=none;top=0;left=0;bottom=0;right=0;points=[[0,0.5],[1,0.5]];portConstraint=eastwest;fontSize=10;" parent="865" vertex="1"><mxGeometry y="60" width="150" height="40" as="geometry"/></mxCell><mxCell id="871" value="Ahmed" style="shape=partialRectangle;html=1;whiteSpace=wrap;connectable=0;fillColor=none;top=0;left=0;bottom=0;right=0;overflow=hidden;pointerEvents=1;fontSize=10;" parent="870" vertex="1"><mxGeometry width="45" height="40" as="geometry"><mxRectangle width="45" height="40" as="alternateBounds"/></mxGeometry></mxCell><mxCell id="872" value="01111544894" style="shape=partialRectangle;html=1;whiteSpace=wrap;connectable=0;fillColor=none;top=0;left=0;bottom=0;right=0;overflow=hidden;pointerEvents=1;fontSize=10;" parent="870" vertex="1"><mxGeometry x="45" width="50" height="40" as="geometry"><mxRectangle width="50" height="40" as="alternateBounds"/></mxGeometry></mxCell><mxCell id="873" value="A4325233" style="shape=partialRectangle;html=1;whiteSpace=wrap;connectable=0;fillColor=none;top=0;left=0;bottom=0;right=0;overflow=hidden;pointerEvents=1;fontSize=10;fontColor=#ffffff;strokeColor=none;" parent="870" vertex="1"><mxGeometry x="95" width="55" height="40" as="geometry"><mxRectangle width="55" height="40" as="alternateBounds"/></mxGeometry></mxCell><mxCell id="874" value="" style="shape=partialRectangle;html=1;whiteSpace=wrap;collapsible=0;dropTarget=0;pointerEvents=0;fillColor=none;top=0;left=0;bottom=0;right=0;points=[[0,0.5],[1,0.5]];portConstraint=eastwest;fontSize=10;" parent="865" vertex="1"><mxGeometry y="100" width="150" height="40" as="geometry"/></mxCell><mxCell id="875" value="&lt;span&gt;Ramdan&lt;br&gt;&lt;/span&gt;" style="shape=partialRectangle;html=1;whiteSpace=wrap;connectable=0;fillColor=none;top=0;left=0;bottom=0;right=0;overflow=hidden;pointerEvents=1;fontSize=10;" parent="874" vertex="1"><mxGeometry width="45" height="40" as="geometry"><mxRectangle width="45" height="40" as="alternateBounds"/></mxGeometry></mxCell><mxCell id="876" value="01521544894" style="shape=partialRectangle;html=1;whiteSpace=wrap;connectable=0;fillColor=none;top=0;left=0;bottom=0;right=0;overflow=hidden;pointerEvents=1;fontSize=10;" parent="874" vertex="1"><mxGeometry x="45" width="50" height="40" as="geometry"><mxRectangle width="50" height="40" as="alternateBounds"/></mxGeometry></mxCell><mxCell id="877" value="&lt;span&gt;R4327343&lt;br&gt;&lt;/span&gt;" style="shape=partialRectangle;html=1;whiteSpace=wrap;connectable=0;top=0;left=0;bottom=0;right=0;overflow=hidden;pointerEvents=1;fontSize=10;fillColor=none;" parent="874" vertex="1"><mxGeometry x="95" width="55" height="40" as="geometry"><mxRectangle width="55" height="40" as="alternateBounds"/></mxGeometry></mxCell><mxCell id="878" value="&lt;h1&gt;Donors&amp;nbsp;&lt;/h1&gt;" style="text;html=1;strokeColor=none;fillColor=none;spacing=5;spacingTop=-20;whiteSpace=wrap;overflow=hidden;rounded=0;align=center;" parent="836" vertex="1"><mxGeometry x="290" y="54.99999999999999" width="270" height="45.99" as="geometry"/></mxCell><mxCell id="879" value="Donors " style="shape=table;startSize=30;container=1;collapsible=0;childLayout=tableLayout;fontStyle=1;align=center;pointerEvents=1;fontSize=10;" parent="836" vertex="1"><mxGeometry x="455.4346859903382" y="109.99823529411765" width="250" height="140.00176470588235" as="geometry"/></mxCell><mxCell id="880" value="" style="shape=partialRectangle;html=1;whiteSpace=wrap;collapsible=0;dropTarget=0;pointerEvents=0;fillColor=none;top=0;left=0;bottom=0;right=0;points=[[0,0.5],[1,0.5]];portConstraint=eastwest;fontSize=10;" parent="879" vertex="1"><mxGeometry y="30" width="250" height="30" as="geometry"/></mxCell><mxCell id="881" value="Gender" style="shape=partialRectangle;html=1;whiteSpace=wrap;connectable=0;fillColor=none;top=0;left=0;bottom=0;right=0;overflow=hidden;pointerEvents=1;fontSize=10;" parent="880" vertex="1"><mxGeometry width="35" height="30" as="geometry"><mxRectangle width="35" height="30" as="alternateBounds"/></mxGeometry></mxCell><mxCell id="882" value="Email" style="shape=partialRectangle;html=1;whiteSpace=wrap;connectable=0;fillColor=none;top=0;left=0;bottom=0;right=0;overflow=hidden;pointerEvents=1;fontSize=10;" parent="880" vertex="1"><mxGeometry x="35" width="80" height="30" as="geometry"><mxRectangle width="80" height="30" as="alternateBounds"/></mxGeometry></mxCell><mxCell id="883" value="Address" style="shape=partialRectangle;html=1;whiteSpace=wrap;connectable=0;fillColor=none;top=0;left=0;bottom=0;right=0;overflow=hidden;pointerEvents=1;fontSize=10;" parent="880" vertex="1"><mxGeometry x="115" width="135" height="30" as="geometry"><mxRectangle width="135" height="30" as="alternateBounds"/></mxGeometry></mxCell><mxCell id="884" value="" style="shape=partialRectangle;html=1;whiteSpace=wrap;collapsible=0;dropTarget=0;pointerEvents=0;fillColor=none;top=0;left=0;bottom=0;right=0;points=[[0,0.5],[1,0.5]];portConstraint=eastwest;fontSize=10;" parent="879" vertex="1"><mxGeometry y="60" width="250" height="40" as="geometry"/></mxCell><mxCell id="885" value="Male" style="shape=partialRectangle;html=1;whiteSpace=wrap;connectable=0;fillColor=none;top=0;left=0;bottom=0;right=0;overflow=hidden;pointerEvents=1;fontSize=10;" parent="884" vertex="1"><mxGeometry width="35" height="40" as="geometry"><mxRectangle width="35" height="40" as="alternateBounds"/></mxGeometry></mxCell><mxCell id="886" value="ahmed@gmail.com" style="shape=partialRectangle;html=1;whiteSpace=wrap;connectable=0;fillColor=none;top=0;left=0;bottom=0;right=0;overflow=hidden;pointerEvents=1;fontSize=10;" parent="884" vertex="1"><mxGeometry x="35" width="80" height="40" as="geometry"><mxRectangle width="80" height="40" as="alternateBounds"/></mxGeometry></mxCell><mxCell id="887" value="232,StName&lt;span style=&quot;color: rgb(240 , 240 , 240)&quot;&gt;,DownTown,&lt;br&gt;&amp;nbsp;&lt;/span&gt;&lt;span style=&quot;color: rgb(240 , 240 , 240)&quot;&gt;City&lt;/span&gt;" style="shape=partialRectangle;html=1;whiteSpace=wrap;connectable=0;fillColor=none;top=0;left=0;bottom=0;right=0;overflow=hidden;pointerEvents=1;fontSize=10;fontColor=#ffffff;strokeColor=none;" parent="884" vertex="1"><mxGeometry x="115" width="135" height="40" as="geometry"><mxRectangle width="135" height="40" as="alternateBounds"/></mxGeometry></mxCell><mxCell id="888" value="" style="shape=partialRectangle;html=1;whiteSpace=wrap;collapsible=0;dropTarget=0;pointerEvents=0;fillColor=none;top=0;left=0;bottom=0;right=0;points=[[0,0.5],[1,0.5]];portConstraint=eastwest;fontSize=10;" parent="879" vertex="1"><mxGeometry y="100" width="250" height="40" as="geometry"/></mxCell><mxCell id="889" value="Male&lt;span&gt;&lt;br&gt;&lt;/span&gt;" style="shape=partialRectangle;html=1;whiteSpace=wrap;connectable=0;fillColor=none;top=0;left=0;bottom=0;right=0;overflow=hidden;pointerEvents=1;fontSize=10;" parent="888" vertex="1"><mxGeometry width="35" height="40" as="geometry"><mxRectangle width="35" height="40" as="alternateBounds"/></mxGeometry></mxCell><mxCell id="890" value="Ramdan@gmail.com" style="shape=partialRectangle;html=1;whiteSpace=wrap;connectable=0;fillColor=none;top=0;left=0;bottom=0;right=0;overflow=hidden;pointerEvents=1;fontSize=10;" parent="888" vertex="1"><mxGeometry x="35" width="80" height="40" as="geometry"><mxRectangle width="80" height="40" as="alternateBounds"/></mxGeometry></mxCell><mxCell id="891" value="234,StName&lt;span style=&quot;color: rgb(240 , 240 , 240)&quot;&gt;,&lt;/span&gt;&lt;span style=&quot;color: rgb(240 , 240 , 240)&quot;&gt;West&amp;nbsp;Town&lt;/span&gt;&lt;span style=&quot;color: rgb(240 , 240 , 240)&quot;&gt;,&lt;br&gt;&amp;nbsp;&lt;/span&gt;&lt;span style=&quot;color: rgb(240 , 240 , 240)&quot;&gt;City&lt;/span&gt;&lt;span&gt;&lt;br&gt;&lt;/span&gt;" style="shape=partialRectangle;html=1;whiteSpace=wrap;connectable=0;fillColor=none;top=0;left=0;bottom=0;right=0;overflow=hidden;pointerEvents=1;fontSize=10;fontColor=#ffffff;strokeColor=#006EAF;" parent="888" vertex="1"><mxGeometry x="115" width="135" height="40" as="geometry"><mxRectangle width="135" height="40" as="alternateBounds"/></mxGeometry></mxCell><mxCell id="839" value="Donors " style="shape=table;startSize=30;container=1;collapsible=0;childLayout=tableLayout;fontStyle=1;align=center;pointerEvents=1;fontSize=10;" parent="836" vertex="1"><mxGeometry x="393.67999999999995" y="110" width="61.75" height="140" as="geometry"/></mxCell><mxCell id="840" value="" style="shape=partialRectangle;html=1;whiteSpace=wrap;collapsible=0;dropTarget=0;pointerEvents=0;fillColor=none;top=0;left=0;bottom=0;right=0;points=[[0,0.5],[1,0.5]];portConstraint=eastwest;fontSize=10;" parent="839" vertex="1"><mxGeometry y="30" width="61.75" height="30" as="geometry"/></mxCell><mxCell id="841" value="Age" style="shape=partialRectangle;html=1;whiteSpace=wrap;connectable=0;fillColor=none;top=0;left=0;bottom=0;right=0;overflow=hidden;pointerEvents=1;fontSize=10;" parent="840" vertex="1"><mxGeometry width="20" height="30" as="geometry"><mxRectangle width="20" height="30" as="alternateBounds"/></mxGeometry></mxCell><mxCell id="842" value="Blood Type" style="shape=partialRectangle;html=1;whiteSpace=wrap;connectable=0;fillColor=none;top=0;left=0;bottom=0;right=0;overflow=hidden;pointerEvents=1;fontSize=10;" parent="840" vertex="1"><mxGeometry x="20" width="22" height="30" as="geometry"><mxRectangle width="22" height="30" as="alternateBounds"/></mxGeometry></mxCell><mxCell id="843" value="&amp;nbsp;unites" style="shape=partialRectangle;html=1;whiteSpace=wrap;connectable=0;fillColor=none;top=0;left=0;bottom=0;right=0;overflow=hidden;pointerEvents=1;fontSize=10;" parent="840" vertex="1"><mxGeometry x="42" width="20" height="30" as="geometry"><mxRectangle width="20" height="30" as="alternateBounds"/></mxGeometry></mxCell><mxCell id="844" value="" style="shape=partialRectangle;html=1;whiteSpace=wrap;collapsible=0;dropTarget=0;pointerEvents=0;fillColor=none;top=0;left=0;bottom=0;right=0;points=[[0,0.5],[1,0.5]];portConstraint=eastwest;fontSize=10;" parent="839" vertex="1"><mxGeometry y="60" width="61.75" height="40" as="geometry"/></mxCell><mxCell id="845" value="&lt;font style=&quot;font-size: 7px&quot;&gt;22&lt;/font&gt;" style="shape=partialRectangle;html=1;whiteSpace=wrap;connectable=0;fillColor=none;top=0;left=0;bottom=0;right=0;overflow=hidden;pointerEvents=1;fontSize=10;" parent="844" vertex="1"><mxGeometry width="20" height="40" as="geometry"><mxRectangle width="20" height="40" as="alternateBounds"/></mxGeometry></mxCell><mxCell id="846" value="A+" style="shape=partialRectangle;html=1;whiteSpace=wrap;connectable=0;fillColor=none;top=0;left=0;bottom=0;right=0;overflow=hidden;pointerEvents=1;fontSize=10;" parent="844" vertex="1"><mxGeometry x="20" width="22" height="40" as="geometry"><mxRectangle width="22" height="40" as="alternateBounds"/></mxGeometry></mxCell><mxCell id="847" value="2" style="shape=partialRectangle;html=1;whiteSpace=wrap;connectable=0;fillColor=none;top=0;left=0;bottom=0;right=0;overflow=hidden;pointerEvents=1;fontSize=10;" parent="844" vertex="1"><mxGeometry x="42" width="20" height="40" as="geometry"><mxRectangle width="20" height="40" as="alternateBounds"/></mxGeometry></mxCell><mxCell id="848" value="" style="shape=partialRectangle;html=1;whiteSpace=wrap;collapsible=0;dropTarget=0;pointerEvents=0;fillColor=none;top=0;left=0;bottom=0;right=0;points=[[0,0.5],[1,0.5]];portConstraint=eastwest;fontSize=10;" parent="839" vertex="1"><mxGeometry y="100" width="61.75" height="40" as="geometry"/></mxCell><mxCell id="849" value="&lt;span style=&quot;font-size: 7px&quot;&gt;25&lt;/span&gt;" style="shape=partialRectangle;html=1;whiteSpace=wrap;connectable=0;fillColor=none;top=0;left=0;bottom=0;right=0;overflow=hidden;pointerEvents=1;fontSize=10;" parent="848" vertex="1"><mxGeometry width="20" height="40" as="geometry"><mxRectangle width="20" height="40" as="alternateBounds"/></mxGeometry></mxCell><mxCell id="850" value="&lt;span&gt;AB-&lt;/span&gt;" style="shape=partialRectangle;html=1;whiteSpace=wrap;connectable=0;fillColor=none;top=0;left=0;bottom=0;right=0;overflow=hidden;pointerEvents=1;fontSize=10;" parent="848" vertex="1"><mxGeometry x="20" width="22" height="40" as="geometry"><mxRectangle width="22" height="40" as="alternateBounds"/></mxGeometry></mxCell><mxCell id="851" value="1" style="shape=partialRectangle;html=1;whiteSpace=wrap;connectable=0;fillColor=none;top=0;left=0;bottom=0;right=0;overflow=hidden;pointerEvents=1;fontSize=10;" parent="848" vertex="1"><mxGeometry x="42" width="20" height="40" as="geometry"><mxRectangle width="20" height="40" as="alternateBounds"/></mxGeometry></mxCell><mxCell id="919" value="Donors " style="shape=table;startSize=30;container=1;collapsible=0;childLayout=tableLayout;fontStyle=1;align=center;pointerEvents=1;fontSize=10;" parent="836" vertex="1"><mxGeometry x="705.4300000000001" y="110" width="150" height="140" as="geometry"/></mxCell><mxCell id="920" value="" style="shape=partialRectangle;html=1;whiteSpace=wrap;collapsible=0;dropTarget=0;pointerEvents=0;fillColor=none;top=0;left=0;bottom=0;right=0;points=[[0,0.5],[1,0.5]];portConstraint=eastwest;fontSize=10;" parent="919" vertex="1"><mxGeometry y="30" width="150" height="30" as="geometry"/></mxCell><mxCell id="921" value="Diseses" style="shape=partialRectangle;html=1;whiteSpace=wrap;connectable=0;fillColor=none;top=0;left=0;bottom=0;right=0;overflow=hidden;pointerEvents=1;fontSize=10;" parent="920" vertex="1"><mxGeometry width="45" height="30" as="geometry"><mxRectangle width="45" height="30" as="alternateBounds"/></mxGeometry></mxCell><mxCell id="922" value="Requests" style="shape=partialRectangle;html=1;whiteSpace=wrap;connectable=0;fillColor=none;top=0;left=0;bottom=0;right=0;overflow=hidden;pointerEvents=1;fontSize=10;" parent="920" vertex="1"><mxGeometry x="45" width="50" height="30" as="geometry"><mxRectangle width="50" height="30" as="alternateBounds"/></mxGeometry></mxCell><mxCell id="923" value="Donition Counter" style="shape=partialRectangle;html=1;whiteSpace=wrap;connectable=0;fillColor=none;top=0;left=0;bottom=0;right=0;overflow=hidden;pointerEvents=1;fontSize=10;" parent="920" vertex="1"><mxGeometry x="95" width="55" height="30" as="geometry"><mxRectangle width="55" height="30" as="alternateBounds"/></mxGeometry></mxCell><mxCell id="924" value="" style="shape=partialRectangle;html=1;whiteSpace=wrap;collapsible=0;dropTarget=0;pointerEvents=0;fillColor=none;top=0;left=0;bottom=0;right=0;points=[[0,0.5],[1,0.5]];portConstraint=eastwest;fontSize=10;" parent="919" vertex="1"><mxGeometry y="60" width="150" height="40" as="geometry"/></mxCell><mxCell id="925" value="None" style="shape=partialRectangle;html=1;whiteSpace=wrap;connectable=0;fillColor=none;top=0;left=0;bottom=0;right=0;overflow=hidden;pointerEvents=1;fontSize=10;" parent="924" vertex="1"><mxGeometry width="45" height="40" as="geometry"><mxRectangle width="45" height="40" as="alternateBounds"/></mxGeometry></mxCell><mxCell id="926" value="None" style="shape=partialRectangle;html=1;whiteSpace=wrap;connectable=0;fillColor=none;top=0;left=0;bottom=0;right=0;overflow=hidden;pointerEvents=1;fontSize=10;" parent="924" vertex="1"><mxGeometry x="45" width="50" height="40" as="geometry"><mxRectangle width="50" height="40" as="alternateBounds"/></mxGeometry></mxCell><mxCell id="927" value="3 times" style="shape=partialRectangle;html=1;whiteSpace=wrap;connectable=0;fillColor=none;top=0;left=0;bottom=0;right=0;overflow=hidden;pointerEvents=1;fontSize=10;fontColor=#ffffff;strokeColor=none;" parent="924" vertex="1"><mxGeometry x="95" width="55" height="40" as="geometry"><mxRectangle width="55" height="40" as="alternateBounds"/></mxGeometry></mxCell><mxCell id="928" value="" style="shape=partialRectangle;html=1;whiteSpace=wrap;collapsible=0;dropTarget=0;pointerEvents=0;fillColor=none;top=0;left=0;bottom=0;right=0;points=[[0,0.5],[1,0.5]];portConstraint=eastwest;fontSize=10;" parent="919" vertex="1"><mxGeometry y="100" width="150" height="40" as="geometry"/></mxCell><mxCell id="929" value="None&lt;span&gt;&lt;br&gt;&lt;/span&gt;" style="shape=partialRectangle;html=1;whiteSpace=wrap;connectable=0;fillColor=none;top=0;left=0;bottom=0;right=0;overflow=hidden;pointerEvents=1;fontSize=10;" parent="928" vertex="1"><mxGeometry width="45" height="40" as="geometry"><mxRectangle width="45" height="40" as="alternateBounds"/></mxGeometry></mxCell><mxCell id="930" value="None" style="shape=partialRectangle;html=1;whiteSpace=wrap;connectable=0;fillColor=none;top=0;left=0;bottom=0;right=0;overflow=hidden;pointerEvents=1;fontSize=10;" parent="928" vertex="1"><mxGeometry x="45" width="50" height="40" as="geometry"><mxRectangle width="50" height="40" as="alternateBounds"/></mxGeometry></mxCell><mxCell id="931" value="&lt;span&gt;4 times&lt;br&gt;&lt;/span&gt;" style="shape=partialRectangle;html=1;whiteSpace=wrap;connectable=0;top=0;left=0;bottom=0;right=0;overflow=hidden;pointerEvents=1;fontSize=10;fillColor=none;" parent="928" vertex="1"><mxGeometry x="95" width="55" height="40" as="geometry"><mxRectangle width="55" height="40" as="alternateBounds"/></mxGeometry></mxCell><mxCell id="932" value="admin panel" style="swimlane;" parent="1250" vertex="1"><mxGeometry x="1.59" y="310" width="860" height="260" as="geometry"/></mxCell><mxCell id="933" value="&lt;font style=&quot;font-size: 10px&quot;&gt;Home&amp;nbsp;&amp;nbsp;&lt;span&gt;&#9;&lt;/span&gt;&amp;nbsp;Requests&lt;span&gt;&#9;&lt;span style=&quot;white-space: pre&quot;&gt;&#9;&lt;/span&gt;&lt;/span&gt;Stock&lt;span&gt;&#9;&lt;/span&gt;Donors&lt;span&gt;&#9;&lt;span style=&quot;white-space: pre&quot;&gt;&#9;&lt;/span&gt;&lt;/span&gt;Patients&lt;span&gt;&#9;&lt;span style=&quot;white-space: pre&quot;&gt;&#9;&lt;/span&gt;&lt;/span&gt;&lt;/font&gt;&lt;span style=&quot;background-color: rgba(127 , 127 , 127 , 0.1)&quot;&gt;Logout&lt;/span&gt;" style="rounded=1;whiteSpace=wrap;html=1;" parent="932" vertex="1"><mxGeometry y="24.45" width="860" height="19.56" as="geometry"/></mxCell><mxCell id="934" value="" style="group" parent="932" vertex="1" connectable="0"><mxGeometry x="15.68" y="110" width="378.00000000000006" height="140" as="geometry"/></mxCell><mxCell id="935" value="Patients" style="shape=table;startSize=30;container=1;collapsible=0;childLayout=tableLayout;fontStyle=1;align=center;pointerEvents=1;fontSize=10;" parent="934" vertex="1"><mxGeometry x="1.2974571859535521e-14" width="228.25108199959334" height="140" as="geometry"/></mxCell><mxCell id="936" value="" style="shape=partialRectangle;html=1;whiteSpace=wrap;collapsible=0;dropTarget=0;pointerEvents=0;fillColor=none;top=0;left=0;bottom=0;right=0;points=[[0,0.5],[1,0.5]];portConstraint=eastwest;fontSize=10;" parent="935" vertex="1"><mxGeometry y="30" width="228.25108199959334" height="30" as="geometry"/></mxCell><mxCell id="937" value="&lt;span&gt;ID&lt;/span&gt;" style="shape=partialRectangle;html=1;whiteSpace=wrap;connectable=0;fillColor=none;top=0;left=0;bottom=0;right=0;overflow=hidden;pointerEvents=1;fontSize=10;" parent="936" vertex="1"><mxGeometry width="27" height="30" as="geometry"><mxRectangle width="27" height="30" as="alternateBounds"/></mxGeometry></mxCell><mxCell id="938" value="Avail &lt;br&gt;Date" style="shape=partialRectangle;html=1;whiteSpace=wrap;connectable=0;fillColor=none;top=0;left=0;bottom=0;right=0;overflow=hidden;pointerEvents=1;fontSize=10;" parent="936" vertex="1"><mxGeometry x="27" width="57" height="30" as="geometry"><mxRectangle width="57" height="30" as="alternateBounds"/></mxGeometry></mxCell><mxCell id="939" value="Avail&lt;br&gt;Area" style="shape=partialRectangle;html=1;whiteSpace=wrap;connectable=0;fillColor=none;top=0;left=0;bottom=0;right=0;overflow=hidden;pointerEvents=1;fontSize=10;" parent="936" vertex="1"><mxGeometry x="84" width="144" height="30" as="geometry"><mxRectangle width="144" height="30" as="alternateBounds"/></mxGeometry></mxCell><mxCell id="940" value="" style="shape=partialRectangle;html=1;whiteSpace=wrap;collapsible=0;dropTarget=0;pointerEvents=0;fillColor=none;top=0;left=0;bottom=0;right=0;points=[[0,0.5],[1,0.5]];portConstraint=eastwest;fontSize=10;" parent="935" vertex="1"><mxGeometry y="60" width="228.25108199959334" height="40" as="geometry"/></mxCell><mxCell id="941" value="D253" style="shape=partialRectangle;html=1;whiteSpace=wrap;connectable=0;fillColor=none;top=0;left=0;bottom=0;right=0;overflow=hidden;pointerEvents=1;fontSize=10;" parent="940" vertex="1"><mxGeometry width="27" height="40" as="geometry"><mxRectangle width="27" height="40" as="alternateBounds"/></mxGeometry></mxCell><mxCell id="942" value="2:05 PM&lt;br&gt;25/3/2022" style="shape=partialRectangle;html=1;whiteSpace=wrap;connectable=0;fillColor=none;top=0;left=0;bottom=0;right=0;overflow=hidden;pointerEvents=1;fontSize=10;" parent="940" vertex="1"><mxGeometry x="27" width="57" height="40" as="geometry"><mxRectangle width="57" height="40" as="alternateBounds"/></mxGeometry></mxCell><mxCell id="943" value="City,DownTown Area&lt;br&gt;Hospital Name" style="shape=partialRectangle;html=1;whiteSpace=wrap;connectable=0;fillColor=none;top=0;left=0;bottom=0;right=0;overflow=hidden;pointerEvents=1;fontSize=10;" parent="940" vertex="1"><mxGeometry x="84" width="144" height="40" as="geometry"><mxRectangle width="144" height="40" as="alternateBounds"/></mxGeometry></mxCell><mxCell id="944" value="" style="shape=partialRectangle;html=1;whiteSpace=wrap;collapsible=0;dropTarget=0;pointerEvents=0;fillColor=none;top=0;left=0;bottom=0;right=0;points=[[0,0.5],[1,0.5]];portConstraint=eastwest;fontSize=10;" parent="935" vertex="1"><mxGeometry y="100" width="228.25108199959334" height="40" as="geometry"/></mxCell><mxCell id="945" value="&lt;span&gt;D254&lt;/span&gt;" style="shape=partialRectangle;html=1;whiteSpace=wrap;connectable=0;fillColor=none;top=0;left=0;bottom=0;right=0;overflow=hidden;pointerEvents=1;fontSize=10;" parent="944" vertex="1"><mxGeometry width="27" height="40" as="geometry"><mxRectangle width="27" height="40" as="alternateBounds"/></mxGeometry></mxCell><mxCell id="946" value="2:08 PM&lt;br&gt;25/3/2022" style="shape=partialRectangle;html=1;whiteSpace=wrap;connectable=0;fillColor=none;top=0;left=0;bottom=0;right=0;overflow=hidden;pointerEvents=1;fontSize=10;" parent="944" vertex="1"><mxGeometry x="27" width="57" height="40" as="geometry"><mxRectangle width="57" height="40" as="alternateBounds"/></mxGeometry></mxCell><mxCell id="947" value="&lt;span&gt;City,West Town Area&lt;br&gt;&lt;/span&gt;Clinc Name&lt;span&gt;&lt;br&gt;&lt;/span&gt;" style="shape=partialRectangle;html=1;whiteSpace=wrap;connectable=0;fillColor=none;top=0;left=0;bottom=0;right=0;overflow=hidden;pointerEvents=1;fontSize=10;" parent="944" vertex="1"><mxGeometry x="84" width="144" height="40" as="geometry"><mxRectangle width="144" height="40" as="alternateBounds"/></mxGeometry></mxCell><mxCell id="948" value="Patients" style="shape=table;startSize=30;container=1;collapsible=0;childLayout=tableLayout;fontStyle=1;align=center;pointerEvents=1;fontSize=10;" parent="934" vertex="1"><mxGeometry x="228.00000000000006" width="150" height="140" as="geometry"/></mxCell><mxCell id="949" value="" style="shape=partialRectangle;html=1;whiteSpace=wrap;collapsible=0;dropTarget=0;pointerEvents=0;fillColor=none;top=0;left=0;bottom=0;right=0;points=[[0,0.5],[1,0.5]];portConstraint=eastwest;fontSize=10;" parent="948" vertex="1"><mxGeometry y="30" width="150" height="30" as="geometry"/></mxCell><mxCell id="950" value="Name" style="shape=partialRectangle;html=1;whiteSpace=wrap;connectable=0;fillColor=none;top=0;left=0;bottom=0;right=0;overflow=hidden;pointerEvents=1;fontSize=10;" parent="949" vertex="1"><mxGeometry width="45" height="30" as="geometry"><mxRectangle width="45" height="30" as="alternateBounds"/></mxGeometry></mxCell><mxCell id="951" value="Phone" style="shape=partialRectangle;html=1;whiteSpace=wrap;connectable=0;fillColor=none;top=0;left=0;bottom=0;right=0;overflow=hidden;pointerEvents=1;fontSize=10;" parent="949" vertex="1"><mxGeometry x="45" width="50" height="30" as="geometry"><mxRectangle width="50" height="30" as="alternateBounds"/></mxGeometry></mxCell><mxCell id="952" value="Health ID" style="shape=partialRectangle;html=1;whiteSpace=wrap;connectable=0;fillColor=none;top=0;left=0;bottom=0;right=0;overflow=hidden;pointerEvents=1;fontSize=10;" parent="949" vertex="1"><mxGeometry x="95" width="55" height="30" as="geometry"><mxRectangle width="55" height="30" as="alternateBounds"/></mxGeometry></mxCell><mxCell id="953" value="" style="shape=partialRectangle;html=1;whiteSpace=wrap;collapsible=0;dropTarget=0;pointerEvents=0;fillColor=none;top=0;left=0;bottom=0;right=0;points=[[0,0.5],[1,0.5]];portConstraint=eastwest;fontSize=10;" parent="948" vertex="1"><mxGeometry y="60" width="150" height="40" as="geometry"/></mxCell><mxCell id="954" value="Mahmed" style="shape=partialRectangle;html=1;whiteSpace=wrap;connectable=0;fillColor=none;top=0;left=0;bottom=0;right=0;overflow=hidden;pointerEvents=1;fontSize=10;" parent="953" vertex="1"><mxGeometry width="45" height="40" as="geometry"><mxRectangle width="45" height="40" as="alternateBounds"/></mxGeometry></mxCell><mxCell id="955" value="01111544894" style="shape=partialRectangle;html=1;whiteSpace=wrap;connectable=0;fillColor=none;top=0;left=0;bottom=0;right=0;overflow=hidden;pointerEvents=1;fontSize=10;" parent="953" vertex="1"><mxGeometry x="45" width="50" height="40" as="geometry"><mxRectangle width="50" height="40" as="alternateBounds"/></mxGeometry></mxCell><mxCell id="956" value="A4325233" style="shape=partialRectangle;html=1;whiteSpace=wrap;connectable=0;fillColor=none;top=0;left=0;bottom=0;right=0;overflow=hidden;pointerEvents=1;fontSize=10;fontColor=#ffffff;strokeColor=none;" parent="953" vertex="1"><mxGeometry x="95" width="55" height="40" as="geometry"><mxRectangle width="55" height="40" as="alternateBounds"/></mxGeometry></mxCell><mxCell id="957" value="" style="shape=partialRectangle;html=1;whiteSpace=wrap;collapsible=0;dropTarget=0;pointerEvents=0;fillColor=none;top=0;left=0;bottom=0;right=0;points=[[0,0.5],[1,0.5]];portConstraint=eastwest;fontSize=10;" parent="948" vertex="1"><mxGeometry y="100" width="150" height="40" as="geometry"/></mxCell><mxCell id="958" value="&lt;span&gt;Ragab&lt;br&gt;&lt;/span&gt;" style="shape=partialRectangle;html=1;whiteSpace=wrap;connectable=0;fillColor=none;top=0;left=0;bottom=0;right=0;overflow=hidden;pointerEvents=1;fontSize=10;" parent="957" vertex="1"><mxGeometry width="45" height="40" as="geometry"><mxRectangle width="45" height="40" as="alternateBounds"/></mxGeometry></mxCell><mxCell id="959" value="01521544894" style="shape=partialRectangle;html=1;whiteSpace=wrap;connectable=0;fillColor=none;top=0;left=0;bottom=0;right=0;overflow=hidden;pointerEvents=1;fontSize=10;" parent="957" vertex="1"><mxGeometry x="45" width="50" height="40" as="geometry"><mxRectangle width="50" height="40" as="alternateBounds"/></mxGeometry></mxCell><mxCell id="960" value="&lt;span&gt;R4327343&lt;br&gt;&lt;/span&gt;" style="shape=partialRectangle;html=1;whiteSpace=wrap;connectable=0;top=0;left=0;bottom=0;right=0;overflow=hidden;pointerEvents=1;fontSize=10;fillColor=none;" parent="957" vertex="1"><mxGeometry x="95" width="55" height="40" as="geometry"><mxRectangle width="55" height="40" as="alternateBounds"/></mxGeometry></mxCell><mxCell id="961" value="&lt;h1&gt;Patients&lt;/h1&gt;" style="text;html=1;strokeColor=none;fillColor=none;spacing=5;spacingTop=-20;whiteSpace=wrap;overflow=hidden;rounded=0;align=center;" parent="932" vertex="1"><mxGeometry x="290" y="54.99999999999999" width="270" height="45.99" as="geometry"/></mxCell><mxCell id="962" value="Patients" style="shape=table;startSize=30;container=1;collapsible=0;childLayout=tableLayout;fontStyle=1;align=center;pointerEvents=1;fontSize=10;" parent="932" vertex="1"><mxGeometry x="455.4346859903382" y="109.99823529411765" width="250" height="140.00176470588235" as="geometry"/></mxCell><mxCell id="963" value="" style="shape=partialRectangle;html=1;whiteSpace=wrap;collapsible=0;dropTarget=0;pointerEvents=0;fillColor=none;top=0;left=0;bottom=0;right=0;points=[[0,0.5],[1,0.5]];portConstraint=eastwest;fontSize=10;" parent="962" vertex="1"><mxGeometry y="30" width="250" height="30" as="geometry"/></mxCell><mxCell id="964" value="Gender" style="shape=partialRectangle;html=1;whiteSpace=wrap;connectable=0;fillColor=none;top=0;left=0;bottom=0;right=0;overflow=hidden;pointerEvents=1;fontSize=10;" parent="963" vertex="1"><mxGeometry width="35" height="30" as="geometry"><mxRectangle width="35" height="30" as="alternateBounds"/></mxGeometry></mxCell><mxCell id="965" value="Email" style="shape=partialRectangle;html=1;whiteSpace=wrap;connectable=0;fillColor=none;top=0;left=0;bottom=0;right=0;overflow=hidden;pointerEvents=1;fontSize=10;" parent="963" vertex="1"><mxGeometry x="35" width="80" height="30" as="geometry"><mxRectangle width="80" height="30" as="alternateBounds"/></mxGeometry></mxCell><mxCell id="966" value="Address" style="shape=partialRectangle;html=1;whiteSpace=wrap;connectable=0;fillColor=none;top=0;left=0;bottom=0;right=0;overflow=hidden;pointerEvents=1;fontSize=10;" parent="963" vertex="1"><mxGeometry x="115" width="135" height="30" as="geometry"><mxRectangle width="135" height="30" as="alternateBounds"/></mxGeometry></mxCell><mxCell id="967" value="" style="shape=partialRectangle;html=1;whiteSpace=wrap;collapsible=0;dropTarget=0;pointerEvents=0;fillColor=none;top=0;left=0;bottom=0;right=0;points=[[0,0.5],[1,0.5]];portConstraint=eastwest;fontSize=10;" parent="962" vertex="1"><mxGeometry y="60" width="250" height="40" as="geometry"/></mxCell><mxCell id="968" value="Male" style="shape=partialRectangle;html=1;whiteSpace=wrap;connectable=0;fillColor=none;top=0;left=0;bottom=0;right=0;overflow=hidden;pointerEvents=1;fontSize=10;" parent="967" vertex="1"><mxGeometry width="35" height="40" as="geometry"><mxRectangle width="35" height="40" as="alternateBounds"/></mxGeometry></mxCell><mxCell id="969" value="Mahmed@gmail.com" style="shape=partialRectangle;html=1;whiteSpace=wrap;connectable=0;fillColor=none;top=0;left=0;bottom=0;right=0;overflow=hidden;pointerEvents=1;fontSize=10;" parent="967" vertex="1"><mxGeometry x="35" width="80" height="40" as="geometry"><mxRectangle width="80" height="40" as="alternateBounds"/></mxGeometry></mxCell><mxCell id="970" value="232,StName&lt;span style=&quot;color: rgb(240 , 240 , 240)&quot;&gt;,DownTown,&lt;br&gt;&amp;nbsp;&lt;/span&gt;&lt;span style=&quot;color: rgb(240 , 240 , 240)&quot;&gt;City&lt;/span&gt;" style="shape=partialRectangle;html=1;whiteSpace=wrap;connectable=0;fillColor=none;top=0;left=0;bottom=0;right=0;overflow=hidden;pointerEvents=1;fontSize=10;fontColor=#ffffff;strokeColor=none;" parent="967" vertex="1"><mxGeometry x="115" width="135" height="40" as="geometry"><mxRectangle width="135" height="40" as="alternateBounds"/></mxGeometry></mxCell><mxCell id="971" value="" style="shape=partialRectangle;html=1;whiteSpace=wrap;collapsible=0;dropTarget=0;pointerEvents=0;fillColor=none;top=0;left=0;bottom=0;right=0;points=[[0,0.5],[1,0.5]];portConstraint=eastwest;fontSize=10;" parent="962" vertex="1"><mxGeometry y="100" width="250" height="40" as="geometry"/></mxCell><mxCell id="972" value="Male&lt;span&gt;&lt;br&gt;&lt;/span&gt;" style="shape=partialRectangle;html=1;whiteSpace=wrap;connectable=0;fillColor=none;top=0;left=0;bottom=0;right=0;overflow=hidden;pointerEvents=1;fontSize=10;" parent="971" vertex="1"><mxGeometry width="35" height="40" as="geometry"><mxRectangle width="35" height="40" as="alternateBounds"/></mxGeometry></mxCell><mxCell id="973" value="Ragab@gmail.com" style="shape=partialRectangle;html=1;whiteSpace=wrap;connectable=0;fillColor=none;top=0;left=0;bottom=0;right=0;overflow=hidden;pointerEvents=1;fontSize=10;" parent="971" vertex="1"><mxGeometry x="35" width="80" height="40" as="geometry"><mxRectangle width="80" height="40" as="alternateBounds"/></mxGeometry></mxCell><mxCell id="974" value="234,StName&lt;span style=&quot;color: rgb(240 , 240 , 240)&quot;&gt;,&lt;/span&gt;&lt;span style=&quot;color: rgb(240 , 240 , 240)&quot;&gt;West&amp;nbsp;Town&lt;/span&gt;&lt;span style=&quot;color: rgb(240 , 240 , 240)&quot;&gt;,&lt;br&gt;&amp;nbsp;&lt;/span&gt;&lt;span style=&quot;color: rgb(240 , 240 , 240)&quot;&gt;City&lt;/span&gt;&lt;span&gt;&lt;br&gt;&lt;/span&gt;" style="shape=partialRectangle;html=1;whiteSpace=wrap;connectable=0;fillColor=none;top=0;left=0;bottom=0;right=0;overflow=hidden;pointerEvents=1;fontSize=10;fontColor=#ffffff;strokeColor=#006EAF;" parent="971" vertex="1"><mxGeometry x="115" width="135" height="40" as="geometry"><mxRectangle width="135" height="40" as="alternateBounds"/></mxGeometry></mxCell><mxCell id="975" value="Patients" style="shape=table;startSize=30;container=1;collapsible=0;childLayout=tableLayout;fontStyle=1;align=center;pointerEvents=1;fontSize=10;" parent="932" vertex="1"><mxGeometry x="393.67999999999995" y="110" width="61.75" height="140" as="geometry"/></mxCell><mxCell id="976" value="" style="shape=partialRectangle;html=1;whiteSpace=wrap;collapsible=0;dropTarget=0;pointerEvents=0;fillColor=none;top=0;left=0;bottom=0;right=0;points=[[0,0.5],[1,0.5]];portConstraint=eastwest;fontSize=10;" parent="975" vertex="1"><mxGeometry y="30" width="61.75" height="30" as="geometry"/></mxCell><mxCell id="977" value="Age" style="shape=partialRectangle;html=1;whiteSpace=wrap;connectable=0;fillColor=none;top=0;left=0;bottom=0;right=0;overflow=hidden;pointerEvents=1;fontSize=10;" parent="976" vertex="1"><mxGeometry width="20" height="30" as="geometry"><mxRectangle width="20" height="30" as="alternateBounds"/></mxGeometry></mxCell><mxCell id="978" value="Blood Type" style="shape=partialRectangle;html=1;whiteSpace=wrap;connectable=0;fillColor=none;top=0;left=0;bottom=0;right=0;overflow=hidden;pointerEvents=1;fontSize=10;" parent="976" vertex="1"><mxGeometry x="20" width="22" height="30" as="geometry"><mxRectangle width="22" height="30" as="alternateBounds"/></mxGeometry></mxCell><mxCell id="979" value="&amp;nbsp;unites" style="shape=partialRectangle;html=1;whiteSpace=wrap;connectable=0;fillColor=none;top=0;left=0;bottom=0;right=0;overflow=hidden;pointerEvents=1;fontSize=10;" parent="976" vertex="1"><mxGeometry x="42" width="20" height="30" as="geometry"><mxRectangle width="20" height="30" as="alternateBounds"/></mxGeometry></mxCell><mxCell id="980" value="" style="shape=partialRectangle;html=1;whiteSpace=wrap;collapsible=0;dropTarget=0;pointerEvents=0;fillColor=none;top=0;left=0;bottom=0;right=0;points=[[0,0.5],[1,0.5]];portConstraint=eastwest;fontSize=10;" parent="975" vertex="1"><mxGeometry y="60" width="61.75" height="40" as="geometry"/></mxCell><mxCell id="981" value="&lt;font style=&quot;font-size: 7px&quot;&gt;22&lt;/font&gt;" style="shape=partialRectangle;html=1;whiteSpace=wrap;connectable=0;fillColor=none;top=0;left=0;bottom=0;right=0;overflow=hidden;pointerEvents=1;fontSize=10;" parent="980" vertex="1"><mxGeometry width="20" height="40" as="geometry"><mxRectangle width="20" height="40" as="alternateBounds"/></mxGeometry></mxCell><mxCell id="982" value="A+" style="shape=partialRectangle;html=1;whiteSpace=wrap;connectable=0;fillColor=none;top=0;left=0;bottom=0;right=0;overflow=hidden;pointerEvents=1;fontSize=10;" parent="980" vertex="1"><mxGeometry x="20" width="22" height="40" as="geometry"><mxRectangle width="22" height="40" as="alternateBounds"/></mxGeometry></mxCell><mxCell id="983" value="2" style="shape=partialRectangle;html=1;whiteSpace=wrap;connectable=0;fillColor=none;top=0;left=0;bottom=0;right=0;overflow=hidden;pointerEvents=1;fontSize=10;" parent="980" vertex="1"><mxGeometry x="42" width="20" height="40" as="geometry"><mxRectangle width="20" height="40" as="alternateBounds"/></mxGeometry></mxCell><mxCell id="984" value="" style="shape=partialRectangle;html=1;whiteSpace=wrap;collapsible=0;dropTarget=0;pointerEvents=0;fillColor=none;top=0;left=0;bottom=0;right=0;points=[[0,0.5],[1,0.5]];portConstraint=eastwest;fontSize=10;" parent="975" vertex="1"><mxGeometry y="100" width="61.75" height="40" as="geometry"/></mxCell><mxCell id="985" value="&lt;span style=&quot;font-size: 7px&quot;&gt;25&lt;/span&gt;" style="shape=partialRectangle;html=1;whiteSpace=wrap;connectable=0;fillColor=none;top=0;left=0;bottom=0;right=0;overflow=hidden;pointerEvents=1;fontSize=10;" parent="984" vertex="1"><mxGeometry width="20" height="40" as="geometry"><mxRectangle width="20" height="40" as="alternateBounds"/></mxGeometry></mxCell><mxCell id="986" value="&lt;span&gt;AB-&lt;/span&gt;" style="shape=partialRectangle;html=1;whiteSpace=wrap;connectable=0;fillColor=none;top=0;left=0;bottom=0;right=0;overflow=hidden;pointerEvents=1;fontSize=10;" parent="984" vertex="1"><mxGeometry x="20" width="22" height="40" as="geometry"><mxRectangle width="22" height="40" as="alternateBounds"/></mxGeometry></mxCell><mxCell id="987" value="1" style="shape=partialRectangle;html=1;whiteSpace=wrap;connectable=0;fillColor=none;top=0;left=0;bottom=0;right=0;overflow=hidden;pointerEvents=1;fontSize=10;" parent="984" vertex="1"><mxGeometry x="42" width="20" height="40" as="geometry"><mxRectangle width="20" height="40" as="alternateBounds"/></mxGeometry></mxCell><mxCell id="988" value="Patients" style="shape=table;startSize=30;container=1;collapsible=0;childLayout=tableLayout;fontStyle=1;align=center;pointerEvents=1;fontSize=10;" parent="932" vertex="1"><mxGeometry x="705.4300000000001" y="110" width="150" height="140" as="geometry"/></mxCell><mxCell id="989" value="" style="shape=partialRectangle;html=1;whiteSpace=wrap;collapsible=0;dropTarget=0;pointerEvents=0;fillColor=none;top=0;left=0;bottom=0;right=0;points=[[0,0.5],[1,0.5]];portConstraint=eastwest;fontSize=10;" parent="988" vertex="1"><mxGeometry y="30" width="150" height="30" as="geometry"/></mxCell><mxCell id="990" value="Diseses" style="shape=partialRectangle;html=1;whiteSpace=wrap;connectable=0;fillColor=none;top=0;left=0;bottom=0;right=0;overflow=hidden;pointerEvents=1;fontSize=10;" parent="989" vertex="1"><mxGeometry width="45" height="30" as="geometry"><mxRectangle width="45" height="30" as="alternateBounds"/></mxGeometry></mxCell><mxCell id="991" value="Requests" style="shape=partialRectangle;html=1;whiteSpace=wrap;connectable=0;fillColor=none;top=0;left=0;bottom=0;right=0;overflow=hidden;pointerEvents=1;fontSize=10;" parent="989" vertex="1"><mxGeometry x="45" width="50" height="30" as="geometry"><mxRectangle width="50" height="30" as="alternateBounds"/></mxGeometry></mxCell><mxCell id="992" value="xDonations" style="shape=partialRectangle;html=1;whiteSpace=wrap;connectable=0;fillColor=none;top=0;left=0;bottom=0;right=0;overflow=hidden;pointerEvents=1;fontSize=10;" parent="989" vertex="1"><mxGeometry x="95" width="55" height="30" as="geometry"><mxRectangle width="55" height="30" as="alternateBounds"/></mxGeometry></mxCell><mxCell id="993" value="" style="shape=partialRectangle;html=1;whiteSpace=wrap;collapsible=0;dropTarget=0;pointerEvents=0;fillColor=none;top=0;left=0;bottom=0;right=0;points=[[0,0.5],[1,0.5]];portConstraint=eastwest;fontSize=10;" parent="988" vertex="1"><mxGeometry y="60" width="150" height="40" as="geometry"/></mxCell><mxCell id="994" value="None" style="shape=partialRectangle;html=1;whiteSpace=wrap;connectable=0;fillColor=none;top=0;left=0;bottom=0;right=0;overflow=hidden;pointerEvents=1;fontSize=10;" parent="993" vertex="1"><mxGeometry width="45" height="40" as="geometry"><mxRectangle width="45" height="40" as="alternateBounds"/></mxGeometry></mxCell><mxCell id="995" value="&lt;span style=&quot;font-size: 7px&quot;&gt;AP180&lt;/span&gt;" style="shape=partialRectangle;html=1;whiteSpace=wrap;connectable=0;fillColor=none;top=0;left=0;bottom=0;right=0;overflow=hidden;pointerEvents=1;fontSize=10;" parent="993" vertex="1"><mxGeometry x="45" width="50" height="40" as="geometry"><mxRectangle width="50" height="40" as="alternateBounds"/></mxGeometry></mxCell><mxCell id="996" value="3 times" style="shape=partialRectangle;html=1;whiteSpace=wrap;connectable=0;fillColor=none;top=0;left=0;bottom=0;right=0;overflow=hidden;pointerEvents=1;fontSize=10;fontColor=#ffffff;strokeColor=none;" parent="993" vertex="1"><mxGeometry x="95" width="55" height="40" as="geometry"><mxRectangle width="55" height="40" as="alternateBounds"/></mxGeometry></mxCell><mxCell id="997" value="" style="shape=partialRectangle;html=1;whiteSpace=wrap;collapsible=0;dropTarget=0;pointerEvents=0;fillColor=none;top=0;left=0;bottom=0;right=0;points=[[0,0.5],[1,0.5]];portConstraint=eastwest;fontSize=10;" parent="988" vertex="1"><mxGeometry y="100" width="150" height="40" as="geometry"/></mxCell><mxCell id="998" value="None&lt;span&gt;&lt;br&gt;&lt;/span&gt;" style="shape=partialRectangle;html=1;whiteSpace=wrap;connectable=0;fillColor=none;top=0;left=0;bottom=0;right=0;overflow=hidden;pointerEvents=1;fontSize=10;" parent="997" vertex="1"><mxGeometry width="45" height="40" as="geometry"><mxRectangle width="45" height="40" as="alternateBounds"/></mxGeometry></mxCell><mxCell id="999" value="Canceld" style="shape=partialRectangle;html=1;whiteSpace=wrap;connectable=0;fillColor=none;top=0;left=0;bottom=0;right=0;overflow=hidden;pointerEvents=1;fontSize=10;" parent="997" vertex="1"><mxGeometry x="45" width="50" height="40" as="geometry"><mxRectangle width="50" height="40" as="alternateBounds"/></mxGeometry></mxCell><mxCell id="1000" value="&lt;span&gt;4 times&lt;br&gt;&lt;/span&gt;" style="shape=partialRectangle;html=1;whiteSpace=wrap;connectable=0;top=0;left=0;bottom=0;right=0;overflow=hidden;pointerEvents=1;fontSize=10;fillColor=none;" parent="997" vertex="1"><mxGeometry x="95" width="55" height="40" as="geometry"><mxRectangle width="55" height="40" as="alternateBounds"/></mxGeometry></mxCell><mxCell id="1010" value="Creat Request 1Page" style="swimlane;" parent="1" vertex="1"><mxGeometry x="1610" y="38" width="380" height="375.29" as="geometry"/></mxCell><mxCell id="1011" value="Home&amp;nbsp; &amp;nbsp; About Us&amp;nbsp; &amp;nbsp; Contact Us&amp;nbsp; &amp;nbsp;Requests&lt;span style=&quot;white-space: pre&quot;&gt;&#9;&lt;/span&gt;Donate&lt;span style=&quot;white-space: pre&quot;&gt;&#9;&lt;/span&gt;Logout" style="rounded=1;whiteSpace=wrap;html=1;" parent="1010" vertex="1"><mxGeometry y="24.45" width="380" height="19.56" as="geometry"/></mxCell><mxCell id="1100" value=" Request page " style="swimlane;fontStyle=0;startSize=23;fillColor=#f5f5f5;fontColor=#333333;strokeColor=default;gradientColor=none;swimlaneFillColor=#FFFFFF;fontSize=9;" parent="1010" vertex="1"><mxGeometry x="10.25" y="51.18000000000001" width="359.5" height="313.82" as="geometry"/></mxCell><mxCell id="1101" value="" style="group;rotation=90;fontSize=4;" parent="1100" vertex="1" connectable="0"><mxGeometry x="120" y="48.9" width="271.75" height="321.58" as="geometry"/></mxCell><mxCell id="1102" value="Requested Blood Type*" style="fillColor=none;strokeColor=none;align=left;fontSize=11;fontColor=#212529;" parent="1101" vertex="1"><mxGeometry x="-76.44513017831864" y="-5.801185364457232" width="27.144701130524172" height="13.10033672284737" as="geometry"/></mxCell><mxCell id="1103" value="" style="html=1;shadow=0;dashed=0;shape=mxgraph.bootstrap.rrect;rSize=5;fillColor=none;strokeColor=#999999;align=left;spacing=15;fontSize=14;fontColor=#6C767D;" parent="1101" vertex="1"><mxGeometry x="-76.4461225312532" y="7.30205673357819" width="271.44701130524174" height="13.10033672284737" as="geometry"/></mxCell><mxCell id="1104" value="" style="html=1;shadow=0;dashed=0;shape=mxgraph.bootstrap.rrect;rSize=5;fillColor=none;strokeColor=#999999;align=left;spacing=15;fontSize=14;fontColor=#6C767D;" parent="1101" vertex="1"><mxGeometry x="-76.4461225312532" y="35.11957147141411" width="271.44701130524174" height="13.10033672284737" as="geometry"/></mxCell><mxCell id="1105" value="Needed Uniets*" style="fillColor=none;strokeColor=none;align=left;fontSize=11;fontColor=#212529;" parent="1101" vertex="1"><mxGeometry x="-76.4451301783186" y="48.221360881855496" width="31.668817985611533" height="13.10033672284737" as="geometry"/></mxCell><mxCell id="1106" value="" style="html=1;shadow=0;dashed=0;shape=mxgraph.bootstrap.rrect;rSize=5;fillColor=none;strokeColor=#999999;align=left;spacing=15;fontSize=14;fontColor=#6C767D;" parent="1101" vertex="1"><mxGeometry x="-76.4461225312532" y="61.32460297989091" width="271.44701130524174" height="13.10033672284737" as="geometry"/></mxCell><mxCell id="1108" value="" style="html=1;shadow=0;dashed=0;shape=mxgraph.bootstrap.rrect;rSize=5;fillColor=none;strokeColor=#999999;align=left;spacing=15;fontSize=14;fontColor=#6C767D;" parent="1101" vertex="1"><mxGeometry x="-76.4461225312532" y="118.0869180285201" width="271.44701130524174" height="13.10033672284737" as="geometry"/></mxCell><mxCell id="1114" value="Requested Blood Type Op2" style="fillColor=none;strokeColor=none;align=left;fontSize=11;fontColor=#212529;" parent="1101" vertex="1"><mxGeometry x="-76.1473272721483" y="22.016329373378685" width="27.144701130524172" height="13.10033672284737" as="geometry"/></mxCell><mxCell id="1115" value="Req Stat*" style="fillColor=none;strokeColor=none;align=left;fontSize=11;fontColor=#212529;" parent="1101" vertex="1"><mxGeometry x="-76.15" y="70" width="36.19" height="20" as="geometry"/></mxCell><mxCell id="1116" value="Confirm Mobile Number*" style="fillColor=none;strokeColor=none;align=left;fontSize=11;fontColor=#212529;" parent="1101" vertex="1"><mxGeometry x="-76.1473272721483" y="104.9836759304847" width="36.19293484069889" height="13.10033672284737" as="geometry"/></mxCell><mxCell id="1117" value="Req Area*" style="fillColor=none;strokeColor=none;align=left;fontSize=11;fontColor=#212529;" parent="1101" vertex="1"><mxGeometry x="-76.1473272721483" y="131.18870743896153" width="36.19293484069889" height="13.10033672284737" as="geometry"/></mxCell><mxCell id="1118" value="Req Time*" style="fillColor=none;strokeColor=none;align=left;fontSize=11;fontColor=#212529;" parent="1101" vertex="1"><mxGeometry x="-76.1473272721483" y="157.3864755094682" width="36.19293484069889" height="13.10033672284737" as="geometry"/></mxCell><mxCell id="1119" value="" style="html=1;shadow=0;dashed=0;shape=mxgraph.bootstrap.rrect;rSize=5;fillColor=none;strokeColor=#999999;align=left;spacing=15;fontSize=14;fontColor=#6C767D;" parent="1101" vertex="1"><mxGeometry x="-76.1483196250829" y="144.28759147421485" width="271.44701130524174" height="13.10033672284737" as="geometry"/></mxCell><mxCell id="1120" value="" style="html=1;shadow=0;dashed=0;shape=mxgraph.bootstrap.rrect;rSize=5;fillColor=none;strokeColor=#999999;align=left;spacing=15;fontSize=14;fontColor=#6C767D;" parent="1101" vertex="1"><mxGeometry x="-76.14831962508289" y="196.68893836560437" width="271.44701130524174" height="13.10033672284737" as="geometry"/></mxCell><mxCell id="1123" value="" style="html=1;shadow=0;dashed=0;shape=mxgraph.bootstrap.rrect;rSize=5;fillColor=none;strokeColor=#999999;align=left;spacing=15;fontSize=14;fontColor=#6C767D;" parent="1101" vertex="1"><mxGeometry x="-76.14831962508289" y="170.4882649199096" width="271.44701130524174" height="13.10033672284737" as="geometry"/></mxCell><mxCell id="1124" value="Confirm Mobile Number*" style="fillColor=none;strokeColor=none;align=left;fontSize=11;fontColor=#212529;" parent="1101" vertex="1"><mxGeometry x="-76.14732727214832" y="183.591507017945" width="36.19293484069889" height="13.10033672284737" as="geometry"/></mxCell><mxCell id="1107" value="" style="html=1;shadow=0;dashed=0;shape=mxgraph.bootstrap.rrect;rSize=5;fillColor=none;strokeColor=#999999;align=left;spacing=15;fontSize=14;fontColor=#6C767D;" parent="1100" vertex="1"><mxGeometry x="43.553877468746805" y="138.90049505149983" width="271.44701130524174" height="13.10033672284737" as="geometry"/></mxCell><mxCell id="1110" value="&lt;font style=&quot;font-size: 11px&quot;&gt;Submit&lt;/font&gt;" style="html=1;shadow=0;dashed=0;shape=mxgraph.bootstrap.rrect;rSize=5;fillColor=#0085FC;strokeColor=none;align=center;fontSize=14;fontColor=#FFFFFF;sketch=0;" parent="1100" vertex="1"><mxGeometry x="44.999662352189034" y="269.99814118984796" width="47.50322697841729" height="26.20067344569474" as="geometry"/></mxCell><mxCell id="1283" style="edgeStyle=none;html=1;exitX=1;exitY=0.5;exitDx=0;exitDy=0;entryX=0;entryY=0.5;entryDx=0;entryDy=0;strokeWidth=8;fillColor=#d5e8d4;strokeColor=#82b366;" parent="1" source="1271" target="1001" edge="1"><mxGeometry relative="1" as="geometry"><Array as="points"><mxPoint x="1120" y="460"/><mxPoint x="1120" y="163"/></Array></mxGeometry></mxCell><mxCell id="1307" style="edgeStyle=none;html=1;entryX=0.75;entryY=0;entryDx=0;entryDy=0;strokeWidth=8;fillColor=#f8cecc;gradientColor=#ea6b66;strokeColor=#b85450;" parent="1" target="333" edge="1"><mxGeometry relative="1" as="geometry"><Array as="points"><mxPoint x="945" y="560"/><mxPoint x="1050" y="560"/><mxPoint x="1040" y="720"/><mxPoint x="1014" y="800"/></Array><mxPoint x="945" y="480" as="sourcePoint"/></mxGeometry></mxCell><mxCell id="1270" value="Login " style="swimlane;fontStyle=0;startSize=23;" parent="1" vertex="1"><mxGeometry x="840" y="314" width="210" height="200" as="geometry"/></mxCell><mxCell id="1271" value="&lt;font style=&quot;font-size: 11px&quot;&gt;Confirm&lt;/font&gt;" style="rounded=1;fillColor=#0057D8;strokeColor=none;html=1;fontColor=#ffffff;align=center;verticalAlign=middle;fontStyle=0;fontSize=12;sketch=0;" parent="1270" vertex="1"><mxGeometry x="29.999758454106285" y="130.00411764705885" width="143.31400966183574" height="32.27205882352941" as="geometry"/></mxCell><mxCell id="1272" value="&lt;div style=&quot;text-align: center&quot;&gt;&lt;font color=&quot;#f0f0f0&quot;&gt;&lt;span style=&quot;font-size: 10px ; font-weight: 400 ; background-color: rgb(42 , 42 , 42)&quot;&gt;Email&lt;/span&gt;&lt;/font&gt;&lt;/div&gt;" style="fillColor=none;strokeColor=none;html=1;fontSize=11;fontStyle=0;align=left;fontColor=#596780;fontStyle=1;fontSize=11;labelBackgroundColor=#CCFFE6;" parent="1270" vertex="1"><mxGeometry x="10" y="40" width="240" height="20" as="geometry"/></mxCell><mxCell id="1273" value="&lt;span style=&quot;color: rgb(240 , 240 , 240) ; font-weight: 400 ; text-align: center ; background-color: rgb(42 , 42 , 42)&quot;&gt;&lt;font style=&quot;font-size: 10px&quot;&gt;Password&lt;/font&gt;&lt;/span&gt;" style="fillColor=none;strokeColor=none;html=1;fontSize=11;fontStyle=0;align=left;fontColor=#596780;fontStyle=1;fontSize=11;labelBackgroundColor=#CCFFE6;" parent="1270" vertex="1"><mxGeometry x="10" y="70" width="240" height="20" as="geometry"/></mxCell><mxCell id="1274" value="" style="group" parent="1270" vertex="1" connectable="0"><mxGeometry x="10" y="60" width="190" height="10" as="geometry"/></mxCell><mxCell id="1275" value="" style="rounded=1;arcSize=9;fillColor=#F7F8F9;align=left;spacingLeft=5;strokeColor=#DEE1E6;html=1;strokeWidth=2;fontColor=#596780;fontSize=12;labelBackgroundColor=#CCFFE6;" parent="1274" vertex="1"><mxGeometry width="190" height="10" as="geometry"/></mxCell><mxCell id="1277" value="" style="group" parent="1270" vertex="1" connectable="0"><mxGeometry x="10" y="90" width="190" height="10" as="geometry"/></mxCell><mxCell id="1278" value="" style="rounded=1;arcSize=9;fillColor=#F7F8F9;align=left;spacingLeft=5;strokeColor=#DEE1E6;html=1;strokeWidth=2;fontColor=#596780;fontSize=12;labelBackgroundColor=#CCFFE6;" parent="1277" vertex="1"><mxGeometry width="190" height="10" as="geometry"/></mxCell><mxCell id="30" value=" Registration page " style="swimlane;fontStyle=0;startSize=23;fillColor=#f5f5f5;fontColor=#333333;strokeColor=default;gradientColor=none;swimlaneFillColor=#FFFFFF;fontSize=9;" parent="1" vertex="1"><mxGeometry x="420.00000000000006" y="250" width="350" height="449.92" as="geometry"/></mxCell><mxCell id="332" value="" style="group;rotation=90;fontSize=4;" parent="30" vertex="1" connectable="0"><mxGeometry x="120" y="48.9" width="315.94468599033814" height="321.58" as="geometry"/></mxCell><mxCell id="62" value="Name:" style="fillColor=none;strokeColor=none;align=left;fontSize=11;fontColor=#212529;" parent="332" vertex="1"><mxGeometry x="-76.44513017831864" y="-5.801185364457232" width="27.144701130524172" height="13.10033672284737" as="geometry"/></mxCell><mxCell id="63" value="" style="html=1;shadow=0;dashed=0;shape=mxgraph.bootstrap.rrect;rSize=5;fillColor=none;strokeColor=#999999;align=left;spacing=15;fontSize=14;fontColor=#6C767D;" parent="332" vertex="1"><mxGeometry x="-76.4461225312532" y="7.30205673357819" width="271.44701130524174" height="13.10033672284737" as="geometry"/></mxCell><mxCell id="52" value="" style="html=1;shadow=0;dashed=0;shape=mxgraph.bootstrap.rrect;rSize=5;fillColor=none;strokeColor=#999999;align=left;spacing=15;fontSize=14;fontColor=#6C767D;" parent="332" vertex="1"><mxGeometry x="-76.4461225312532" y="35.11957147141411" width="271.44701130524174" height="13.10033672284737" as="geometry"/></mxCell><mxCell id="53" value="Password" style="fillColor=none;strokeColor=none;align=left;fontSize=11;fontColor=#212529;" parent="332" vertex="1"><mxGeometry x="-76.4451301783186" y="48.221360881855496" width="31.668817985611533" height="13.10033672284737" as="geometry"/></mxCell><mxCell id="54" value="" style="html=1;shadow=0;dashed=0;shape=mxgraph.bootstrap.rrect;rSize=5;fillColor=none;strokeColor=#999999;align=left;spacing=15;fontSize=14;fontColor=#6C767D;" parent="332" vertex="1"><mxGeometry x="-76.4461225312532" y="61.32460297989091" width="271.44701130524174" height="13.10033672284737" as="geometry"/></mxCell><mxCell id="65" value="" style="html=1;shadow=0;dashed=0;shape=mxgraph.bootstrap.rrect;rSize=5;fillColor=none;strokeColor=#999999;align=left;spacing=15;fontSize=14;fontColor=#6C767D;" parent="332" vertex="1"><mxGeometry x="-76.4461225312532" y="93.14049505149985" width="271.44701130524174" height="13.10033672284737" as="geometry"/></mxCell><mxCell id="68" value="" style="html=1;shadow=0;dashed=0;shape=mxgraph.bootstrap.rrect;rSize=5;fillColor=none;strokeColor=#999999;align=left;spacing=15;fontSize=14;fontColor=#6C767D;" parent="332" vertex="1"><mxGeometry x="-76.4461225312532" y="118.0869180285201" width="271.44701130524174" height="13.10033672284737" as="geometry"/></mxCell><mxCell id="55" value="Gender" style="fillColor=none;strokeColor=none;align=left;fontSize=11;fontColor=#212529;" parent="332" vertex="1"><mxGeometry x="5.965341868574902" y="245.67501672345935" width="22.620584275436812" height="13.100336722847373" as="geometry"/></mxCell><mxCell id="61" value="&lt;font style=&quot;font-size: 11px&quot;&gt;Sign up&lt;/font&gt;" style="html=1;shadow=0;dashed=0;shape=mxgraph.bootstrap.rrect;rSize=5;fillColor=#0085FC;strokeColor=none;align=center;fontSize=14;fontColor=#FFFFFF;sketch=0;" parent="332" vertex="1"><mxGeometry x="147.49966235218903" y="289.578141189848" width="47.50322697841729" height="26.20067344569474" as="geometry"/></mxCell><mxCell id="175" value="Date of Birth" style="fillColor=none;strokeColor=none;align=left;fontSize=11;fontColor=#212529;" parent="332" vertex="1"><mxGeometry x="-76.44396875073114" y="245.67211134827136" width="49.765285405960974" height="13.10033672284737" as="geometry"/></mxCell><mxCell id="91" value="Diseases History:" style="fillColor=none;strokeColor=none;align=left;fontSize=11;fontColor=#212529;" parent="332" vertex="1"><mxGeometry x="-76.4451301783186" y="281.98784851110804" width="49.765285405960974" height="13.10033672284737" as="geometry"/></mxCell><mxCell id="81" value="Virus C" style="strokeWidth=1;shadow=0;dashed=0;align=center;html=1;shape=mxgraph.mockup.forms.checkbox;rSize=0;resizable=0;fillColor=#aaaaaa;strokeColor=#444444;gradientColor=#666666;align=left;spacingLeft=4;fontSize=9;fontColor=#008cff;labelPosition=right;" parent="332" vertex="1"><mxGeometry x="-30.35722923309296" y="297.23089943513077" width="15" height="15" as="geometry"/></mxCell><mxCell id="51" value="Email" style="fillColor=none;strokeColor=none;align=left;fontSize=11;fontColor=#212529;" parent="332" vertex="1"><mxGeometry x="-76.1473272721483" y="22.016329373378685" width="27.144701130524172" height="13.10033672284737" as="geometry"/></mxCell><mxCell id="66" value="ID Number" style="fillColor=none;strokeColor=none;align=left;fontSize=11;fontColor=#212529;" parent="332" vertex="1"><mxGeometry x="-76.1473272721483" y="78.78794162260961" width="36.19293484069889" height="13.10033672284737" as="geometry"/></mxCell><mxCell id="67" value="Mobile Number" style="fillColor=none;strokeColor=none;align=left;fontSize=11;fontColor=#212529;" parent="332" vertex="1"><mxGeometry x="-76.1473272721483" y="104.9836759304847" width="36.19293484069889" height="13.10033672284737" as="geometry"/></mxCell><mxCell id="72" value="City" style="fillColor=none;strokeColor=none;align=left;fontSize=11;fontColor=#212529;" parent="332" vertex="1"><mxGeometry x="-76.1473272721483" y="131.18870743896153" width="36.19293484069889" height="13.10033672284737" as="geometry"/></mxCell><mxCell id="73" value="Area" style="fillColor=none;strokeColor=none;align=left;fontSize=11;fontColor=#212529;" parent="332" vertex="1"><mxGeometry x="-76.1473272721483" y="157.3864755094682" width="36.19293484069889" height="13.10033672284737" as="geometry"/></mxCell><mxCell id="76" value="" style="html=1;shadow=0;dashed=0;shape=mxgraph.bootstrap.rrect;rSize=5;fillColor=none;strokeColor=#999999;align=left;spacing=15;fontSize=14;fontColor=#6C767D;" parent="332" vertex="1"><mxGeometry x="-76.1483196250829" y="144.28759147421485" width="271.44701130524174" height="13.10033672284737" as="geometry"/></mxCell><mxCell id="70" value="" style="html=1;shadow=0;dashed=0;shape=mxgraph.bootstrap.rrect;rSize=5;fillColor=none;strokeColor=#999999;align=left;spacing=15;fontSize=14;fontColor=#6C767D;" parent="332" vertex="1"><mxGeometry x="-76.14831962508289" y="196.68893836560437" width="271.44701130524174" height="13.10033672284737" as="geometry"/></mxCell><mxCell id="69" value="" style="html=1;shadow=0;dashed=0;shape=mxgraph.bootstrap.rrect;rSize=5;fillColor=none;strokeColor=#999999;align=left;spacing=15;fontSize=14;fontColor=#6C767D;" parent="332" vertex="1"><mxGeometry x="-76.1483196250829" y="231.14087734531708" width="271.44701130524174" height="13.10033672284737" as="geometry"/></mxCell><mxCell id="75" value="Health ID" style="fillColor=none;strokeColor=none;align=left;fontSize=11;fontColor=#212529;" parent="332" vertex="1"><mxGeometry x="-76.14732727214832" y="218.5199275284953" width="36.19293484069889" height="13.10033672284737" as="geometry"/></mxCell><mxCell id="71" value="" style="html=1;shadow=0;dashed=0;shape=mxgraph.bootstrap.rrect;rSize=5;fillColor=none;strokeColor=#999999;align=left;spacing=15;fontSize=14;fontColor=#6C767D;" parent="332" vertex="1"><mxGeometry x="-76.14831962508289" y="170.4882649199096" width="271.44701130524174" height="13.10033672284737" as="geometry"/></mxCell><mxCell id="74" value="Address" style="fillColor=none;strokeColor=none;align=left;fontSize=11;fontColor=#212529;" parent="332" vertex="1"><mxGeometry x="-76.14732727214832" y="183.591507017945" width="36.19293484069889" height="13.10033672284737" as="geometry"/></mxCell><mxCell id="312" value="" style="html=1;shadow=0;dashed=0;shape=mxgraph.bootstrap.rrect;rSize=5;fillColor=none;strokeColor=#999999;align=left;spacing=15;fontSize=14;fontColor=#6C767D;" parent="332" vertex="1"><mxGeometry x="-76.1473272721483" y="260.21496685197786" width="59.19014347272477" height="13.10324209803541" as="geometry"/></mxCell><mxCell id="59" value="Covid PCR Test:" style="fillColor=none;strokeColor=none;align=left;fontSize=11;fontColor=#212529;" parent="332" vertex="1"><mxGeometry x="110.99301882034342" y="245.6750167234593" width="49.765285405960974" height="13.100336722847373" as="geometry"/></mxCell><mxCell id="56" value="Male" style="html=1;shadow=0;dashed=0;shape=mxgraph.bootstrap.radioButton2;labelPosition=right;verticalLabelPosition=middle;align=left;verticalAlign=middle;gradientColor=#DEDEDE;fillColor=#EDEDED;strokeColor=#666666;checked=1;spacing=5;fontColor=#212529;checkedFill=#0085FC;checkedStroke=#ffffff;sketch=0;fontSize=10;" parent="332" vertex="1"><mxGeometry x="5.96331489404252" y="264.5831984471876" width="4.524116855087362" height="4.3667789076157915" as="geometry"/></mxCell><mxCell id="57" value="&lt;font style=&quot;font-size: 10px&quot;&gt;Female&lt;/font&gt;" style="html=1;shadow=0;dashed=0;shape=mxgraph.bootstrap.radioButton2;labelPosition=right;verticalLabelPosition=middle;align=left;verticalAlign=middle;gradientColor=#DEDEDE;fillColor=#EDEDED;strokeColor=#666666;checked=0;spacing=5;fontColor=#212529;checkedFill=#0085FC;checkedStroke=#ffffff;sketch=0;fontSize=12;" parent="332" vertex="1"><mxGeometry x="42.280742475785544" y="264.5861038223756" width="4.524116855087362" height="4.3667789076157915" as="geometry"/></mxCell><mxCell id="322" value="&lt;font style=&quot;font-size: 9px&quot;&gt;Aids&lt;/font&gt;" style="strokeWidth=1;shadow=0;dashed=0;align=center;html=1;shape=mxgraph.mockup.forms.checkbox;rSize=0;resizable=0;fillColor=#aaaaaa;strokeColor=#444444;gradientColor=#666666;align=left;spacingLeft=4;fontSize=12;fontColor=#008cff;labelPosition=right;" parent="332" vertex="1"><mxGeometry x="-76.45130831984125" y="297.23089943513077" width="15" height="15" as="geometry"/></mxCell><mxCell id="60" value="&lt;font style=&quot;font-size: 9px&quot;&gt;check if you have&amp;nbsp;&lt;/font&gt;" style="html=1;shadow=0;dashed=0;shape=mxgraph.bootstrap.checkbox2;labelPosition=right;verticalLabelPosition=middle;align=left;verticalAlign=middle;gradientColor=#DEDEDE;fillColor=#EDEDED;strokeColor=#666666;checked=1;spacing=5;fontColor=#212529;checkedFill=#0085FC;checkedStroke=#ffffff;sketch=0;fontSize=15;" parent="30" vertex="1"><mxGeometry x="237.82605418831739" y="313.48787222716584" width="4.524116855087362" height="4.3667789076157915" as="geometry"/></mxCell><mxCell id="1290" style="edgeStyle=none;html=1;entryX=0.5;entryY=0;entryDx=0;entryDy=0;strokeWidth=8;fillColor=#0050ef;strokeColor=#001DBC;" parent="1" source="1110" target="1135" edge="1"><mxGeometry relative="1" as="geometry"><mxPoint x="1700" y="410" as="sourcePoint"/><Array as="points"><mxPoint x="1689" y="430"/><mxPoint x="1800" y="430"/></Array></mxGeometry></mxCell><mxCell id="1323" style="edgeStyle=none;html=1;exitX=0.75;exitY=1;exitDx=0;exitDy=0;strokeWidth=5;fillColor=#60a917;strokeColor=#2D7600;" parent="1" source="5" edge="1"><mxGeometry relative="1" as="geometry"><mxPoint x="420" y="280" as="targetPoint"/><Array as="points"><mxPoint x="221" y="160"/><mxPoint x="360" y="160"/><mxPoint x="360" y="280"/></Array></mxGeometry></mxCell><mxCell id="1325" value="" style="endArrow=none;html=1;strokeWidth=5;exitX=1;exitY=0.5;exitDx=0;exitDy=0;fillColor=#60a917;strokeColor=#2D7600;" parent="1" source="4" edge="1"><mxGeometry width="50" height="50" relative="1" as="geometry"><mxPoint x="370" y="380" as="sourcePoint"/><mxPoint x="360" y="205" as="targetPoint"/></mxGeometry></mxCell><mxCell id="1331" value="" style="endArrow=none;html=1;strokeWidth=5;exitX=0.116;exitY=-0.047;exitDx=0;exitDy=0;exitPerimeter=0;fillColor=#a20025;strokeColor=#6F0000;" parent="1" source="9" edge="1"><mxGeometry width="50" height="50" relative="1" as="geometry"><mxPoint x="550" y="290" as="sourcePoint"/><mxPoint x="459" y="30" as="targetPoint"/></mxGeometry></mxCell><mxCell id="1332" value="" style="endArrow=none;html=1;strokeWidth=5;exitX=0.138;exitY=0.096;exitDx=0;exitDy=0;exitPerimeter=0;fillColor=#a20025;strokeColor=#6F0000;" parent="1" source="12" edge="1"><mxGeometry width="50" height="50" relative="1" as="geometry"><mxPoint x="468.5669082125605" y="83.52926470588238" as="sourcePoint"/><mxPoint x="820" y="30" as="targetPoint"/></mxGeometry></mxCell><mxCell id="1350" value="" style="endArrow=classic;html=1;strokeWidth=5;exitX=1.014;exitY=0.934;exitDx=0;exitDy=0;exitPerimeter=0;entryX=0.5;entryY=0;entryDx=0;entryDy=0;fillColor=#fad9d5;strokeColor=#ae4132;" parent="1" source="1002" target="1010" edge="1"><mxGeometry width="50" height="50" relative="1" as="geometry"><mxPoint x="1620" y="260" as="sourcePoint"/><mxPoint x="1670" y="210" as="targetPoint"/><Array as="points"><mxPoint x="1580" y="231"/><mxPoint x="1580" y="10"/><mxPoint x="1800" y="10"/></Array></mxGeometry></mxCell><mxCell id="1352" style="edgeStyle=none;html=1;strokeWidth=8;fillColor=#0050ef;strokeColor=#001DBC;exitX=0.591;exitY=-0.017;exitDx=0;exitDy=0;exitPerimeter=0;" parent="1" source="1100" edge="1"><mxGeometry relative="1" as="geometry"><mxPoint x="1699.0009862795273" y="395.37881463554277" as="sourcePoint"/><mxPoint x="1800" y="520" as="targetPoint"/><Array as="points"><mxPoint x="1833" y="130"/><mxPoint x="1570" y="130"/><mxPoint x="1570" y="350"/><mxPoint x="1570" y="430"/><mxPoint x="1720" y="430"/><mxPoint x="1800" y="430"/></Array></mxGeometry></mxCell><mxCell id="1354" value="" style="endArrow=none;html=1;strokeWidth=5;exitX=0.196;exitY=-0.033;exitDx=0;exitDy=0;exitPerimeter=0;fillColor=#0050ef;strokeColor=#001DBC;" parent="1" source="1002" edge="1"><mxGeometry width="50" height="50" relative="1" as="geometry"><mxPoint x="1500" y="250" as="sourcePoint"/><mxPoint x="1570" y="130" as="targetPoint"/><Array as="points"><mxPoint x="1570" y="106"/></Array></mxGeometry></mxCell><mxCell id="1355" style="edgeStyle=none;html=1;exitX=0.25;exitY=0;exitDx=0;exitDy=0;entryX=0.5;entryY=0;entryDx=0;entryDy=0;strokeWidth=5;fillColor=#e3c800;strokeColor=#B09500;" parent="1" source="5" target="6" edge="1"><mxGeometry relative="1" as="geometry"><Array as="points"><mxPoint x="80" y="10"/><mxPoint x="570" y="10"/></Array></mxGeometry></mxCell><mxCell id="1356" style="edgeStyle=none;html=1;exitX=0.5;exitY=0;exitDx=0;exitDy=0;entryX=0.5;entryY=0;entryDx=0;entryDy=0;strokeWidth=5;fillColor=#b0e3e6;strokeColor=#0e8088;" parent="1" source="5" target="10" edge="1"><mxGeometry relative="1" as="geometry"><Array as="points"><mxPoint x="150"/><mxPoint x="921"/></Array></mxGeometry></mxCell><mxCell id="1357" value="" style="endArrow=none;html=1;strokeWidth=5;exitX=0.5;exitY=1;exitDx=0;exitDy=0;fillColor=#b0e3e6;strokeColor=#0e8088;" parent="1" source="9" edge="1"><mxGeometry width="50" height="50" relative="1" as="geometry"><mxPoint x="520" y="210" as="sourcePoint"/><mxPoint x="390" as="targetPoint"/><Array as="points"><mxPoint x="550" y="100"/><mxPoint x="390" y="100"/></Array></mxGeometry></mxCell><mxCell id="1358" style="edgeStyle=none;html=1;strokeWidth=5;entryX=0.5;entryY=0;entryDx=0;entryDy=0;fillColor=#d80073;strokeColor=#A50040;exitX=0.871;exitY=1.045;exitDx=0;exitDy=0;exitPerimeter=0;" parent="1" source="5" target="1270" edge="1"><mxGeometry relative="1" as="geometry"><mxPoint x="300" y="720" as="targetPoint"/><Array as="points"><mxPoint x="255" y="90"/><mxPoint x="330" y="90"/><mxPoint x="330" y="240"/><mxPoint x="945" y="240"/></Array></mxGeometry></mxCell><mxCell id="1359" value="" style="endArrow=none;html=1;strokeWidth=5;exitX=1.139;exitY=0.666;exitDx=0;exitDy=0;exitPerimeter=0;fillColor=#d80073;strokeColor=#A50040;" parent="1" source="61" edge="1"><mxGeometry width="50" height="50" relative="1" as="geometry"><mxPoint x="740" y="290" as="sourcePoint"/><mxPoint x="810" y="240" as="targetPoint"/><Array as="points"><mxPoint x="810" y="606"/></Array></mxGeometry></mxCell><mxCell id="1360" value="" style="endArrow=none;html=1;strokeWidth=5;fillColor=#d80073;strokeColor=#A50040;exitX=0.882;exitY=1.111;exitDx=0;exitDy=0;exitPerimeter=0;" parent="1" source="12" edge="1"><mxGeometry width="50" height="50" relative="1" as="geometry"><mxPoint x="751.6058378806063" y="615.9277897046809" as="sourcePoint"/><mxPoint x="940" y="240" as="targetPoint"/><Array as="points"><mxPoint x="1028" y="110"/><mxPoint x="1100" y="110"/><mxPoint x="1100" y="240"/></Array></mxGeometry></mxCell><mxCell id="1361" value="" style="endArrow=none;html=1;strokeWidth=5;fillColor=#d80073;strokeColor=#A50040;exitX=0.879;exitY=0.971;exitDx=0;exitDy=0;exitPerimeter=0;" parent="1" source="9" edge="1"><mxGeometry width="50" height="50" relative="1" as="geometry"><mxPoint x="1038.1507000000001" y="105.56510999999978" as="sourcePoint"/><mxPoint x="730" y="240" as="targetPoint"/><Array as="points"><mxPoint x="670" y="100"/><mxPoint x="730" y="100"/><mxPoint x="730" y="200"/></Array></mxGeometry></mxCell><mxCell id="1367" style="edgeStyle=none;html=1;entryX=0.5;entryY=0;entryDx=0;entryDy=0;strokeWidth=5;fillColor=#dae8fc;strokeColor=#6c8ebf;" parent="1" target="304" edge="1"><mxGeometry relative="1" as="geometry"><mxPoint x="1467" y="80" as="sourcePoint"/><Array as="points"><mxPoint x="1467" y="50"/><mxPoint x="1180" y="50"/><mxPoint x="1160" y="60"/><mxPoint x="1160" y="300"/><mxPoint x="1309" y="300"/></Array></mxGeometry></mxCell><mxCell id="1304" style="edgeStyle=none;html=1;strokeWidth=8;fillColor=#a20025;strokeColor=#6F0000;" parent="1" edge="1"><mxGeometry relative="1" as="geometry"><mxPoint x="40" y="240" as="targetPoint"/><Array as="points"><mxPoint x="413" y="780"/><mxPoint x="40" y="780"/></Array><mxPoint x="413" y="900" as="sourcePoint"/></mxGeometry></mxCell><mxCell id="1370" value="" style="endArrow=none;html=1;strokeWidth=5;exitX=0.25;exitY=0;exitDx=0;exitDy=0;fillColor=#a20025;strokeColor=#6F0000;" parent="1" source="507" edge="1"><mxGeometry width="50" height="50" relative="1" as="geometry"><mxPoint x="560" y="1230" as="sourcePoint"/><mxPoint x="178" y="780" as="targetPoint"/></mxGeometry></mxCell><mxCell id="1376" style="edgeStyle=none;html=1;strokeWidth=5;fillColor=#647687;strokeColor=#314354;exitX=0.5;exitY=1;exitDx=0;exitDy=0;" parent="1" source="335" edge="1"><mxGeometry relative="1" as="geometry"><mxPoint x="770" y="880" as="sourcePoint"/><mxPoint x="1760" y="880" as="targetPoint"/><Array as="points"><mxPoint x="890" y="924"/><mxPoint x="900" y="880"/><mxPoint x="900" y="760"/><mxPoint x="1220" y="760"/><mxPoint x="1490" y="760"/><mxPoint x="1760" y="760"/></Array></mxGeometry></mxCell><mxCell id="1377" value="" style="endArrow=classic;html=1;strokeWidth=5;exitX=0.345;exitY=-0.005;exitDx=0;exitDy=0;exitPerimeter=0;entryX=0.471;entryY=0.007;entryDx=0;entryDy=0;entryPerimeter=0;fillColor=#fa6800;strokeColor=#C73500;" parent="1" source="507" target="333" edge="1"><mxGeometry width="50" height="50" relative="1" as="geometry"><mxPoint x="240" y="910" as="sourcePoint"/><mxPoint x="290" y="860" as="targetPoint"/><Array as="points"><mxPoint x="220" y="800"/><mxPoint x="841" y="800"/></Array></mxGeometry></mxCell><mxCell id="1309" style="edgeStyle=none;html=1;entryX=1;entryY=0;entryDx=0;entryDy=0;strokeWidth=8;fillColor=#a20025;strokeColor=#6F0000;exitX=0.873;exitY=-0.314;exitDx=0;exitDy=0;exitPerimeter=0;" parent="1" source="1004" target="2" edge="1"><mxGeometry relative="1" as="geometry"><Array as="points"><mxPoint x="1513" y="29"/></Array><mxPoint x="1540" y="20" as="sourcePoint"/></mxGeometry></mxCell><mxCell id="1381" value="" style="endArrow=classic;html=1;strokeWidth=5;entryX=0.5;entryY=0;entryDx=0;entryDy=0;fillColor=#ffcccc;strokeColor=#213D2F;" parent="1" target="506" edge="1"><mxGeometry width="50" height="50" relative="1" as="geometry"><mxPoint x="820" y="900" as="sourcePoint"/><mxPoint x="840" y="880" as="targetPoint"/><Array as="points"><mxPoint x="820" y="820"/><mxPoint x="295" y="820"/></Array></mxGeometry></mxCell><mxCell id="1382" value="" style="endArrow=classic;html=1;strokeColor=#666666;strokeWidth=5;exitX=0.616;exitY=0.005;exitDx=0;exitDy=0;exitPerimeter=0;entryX=0;entryY=0.25;entryDx=0;entryDy=0;fillColor=#f5f5f5;" parent="1" source="335" target="932" edge="1"><mxGeometry width="50" height="50" relative="1" as="geometry"><mxPoint x="930" y="950" as="sourcePoint"/><mxPoint x="980" y="900" as="targetPoint"/><Array as="points"><mxPoint x="925" y="840"/><mxPoint x="1300" y="840"/><mxPoint x="1300" y="1255"/></Array></mxGeometry></mxCell><mxCell id="1384" value="" style="endArrow=classic;html=1;fillColor=#e1d5e7;strokeColor=#9673a6;strokeWidth=5;" edge="1" parent="1"><mxGeometry width="50" height="50" relative="1" as="geometry"><mxPoint x="710" y="620" as="sourcePoint"/><mxPoint x="1340" y="1230" as="targetPoint"/><Array as="points"><mxPoint x="710" y="850"/><mxPoint x="1250" y="850"/><mxPoint x="1250" y="1230"/></Array></mxGeometry></mxCell></root></mxGraphModel></diagram></mxfile>